<svg xmlns="http://www.w3.org/2000/svg" viewBox="0 0 40.68 34.57"><defs><style>.cls-1{fill:#bda0e2;}</style></defs><g id="레이어_2" data-name="레이어 2"><g id="소개"><polygon class="cls-1" points="12.68 0 8.97 0 6.34 2.65 6.34 6.39 8.97 9.03 12.68 9.03 15.31 6.39 15.31 2.65 12.68 0"/><polygon class="cls-1" points="12.68 6.39 8.97 6.39 6.34 9.03 6.34 12.77 8.97 15.42 12.68 15.42 15.31 12.77 15.31 9.03 12.68 6.39"/><polygon class="cls-1" points="12.68 12.77 8.97 12.77 6.34 15.42 6.34 19.16 8.97 21.8 12.68 21.8 15.31 19.16 15.31 15.42 12.68 12.77"/><polygon class="cls-1" points="12.68 19.16 8.97 19.16 6.34 21.8 6.34 25.54 8.97 28.19 12.68 28.19 15.31 25.54 15.31 21.8 12.68 19.16"/><polygon class="cls-1" points="12.68 25.54 8.97 25.54 6.34 28.19 6.34 31.93 8.97 34.57 12.68 34.57 15.31 31.93 15.31 28.19 12.68 25.54"/><polygon class="cls-1" points="6.34 0 2.63 0 0 2.65 0 6.39 2.63 9.03 6.34 9.03 8.97 6.39 8.97 2.65 6.34 0"/><polygon class="cls-1" points="25.37 0 21.65 0 19.03 2.65 19.03 6.39 21.65 9.03 25.37 9.03 28 6.39 28 2.65 25.37 0"/><polygon class="cls-1" points="25.37 6.39 21.65 6.39 19.03 9.03 19.03 12.77 21.65 15.42 25.37 15.42 28 12.77 28 9.03 25.37 6.39"/><polygon class="cls-1" points="25.37 12.77 21.65 12.77 19.03 15.42 19.03 19.16 21.65 21.8 25.37 21.8 28 19.16 28 15.42 25.37 12.77"/><polygon class="cls-1" points="25.37 19.16 21.65 19.16 19.03 21.8 19.03 25.54 21.65 28.19 25.37 28.19 28 25.54 28 21.8 25.37 19.16"/><polygon class="cls-1" points="25.37 25.54 21.65 25.54 19.03 28.19 19.03 31.93 21.65 34.57 25.37 34.57 28 31.93 28 28.19 25.37 25.54"/><polygon class="cls-1" points="38.05 0 34.34 0 31.71 2.65 31.71 6.39 34.34 9.03 38.05 9.03 40.68 6.39 40.68 2.65 38.05 0"/><polygon class="cls-1" points="38.05 12.77 34.34 12.77 31.71 15.42 31.71 19.16 34.34 21.8 38.05 21.8 40.68 19.16 40.68 15.42 38.05 12.77"/><polygon class="cls-1" points="31.71 0 28 0 25.37 2.65 25.37 6.39 28 9.03 31.71 9.03 34.34 6.39 34.34 2.65 31.71 0"/><polygon class="cls-1" points="31.71 12.77 28 12.77 25.37 15.42 25.37 19.16 28 21.8 31.71 21.8 34.34 19.16 34.34 15.42 31.71 12.77"/></g></g></svg>