<?xml version="1.0" encoding="UTF-8"?>
<svg id="_레이어_2" data-name="레이어 2" xmlns="http://www.w3.org/2000/svg" viewBox="0 0 699.26 141.34">
  <defs>
    <style>
      .cls-1 {
        fill: #050000;
      }

      .cls-1, .cls-2, .cls-3 {
        stroke-width: 0px;
      }

      .cls-2 {
        fill: #c7c9c9;
      }

      .cls-3 {
        fill: #fff;
      }
    </style>
  </defs>
  <g id="mobile">
    <g>
      <polygon class="cls-3" points="417.58 40.2 416.45 39.07 386.14 69.38 355.83 39.07 354.7 40.2 385.01 70.51 354.7 100.82 355.83 101.95 386.14 71.64 416.45 101.95 417.58 100.82 387.27 70.51 417.58 40.2"/>
      <g>
        <polygon class="cls-3" points="67.62 20.59 59.17 20.59 50.71 29.04 50.71 37.49 50.71 45.94 50.71 48.42 48.24 45.94 44.74 45.94 42.26 48.42 39.78 45.94 36.28 45.94 33.81 48.42 31.33 45.94 27.83 45.94 25.36 48.42 25.36 45.94 25.36 37.49 25.36 29.04 25.36 20.59 16.9 20.59 8.45 20.59 0 29.04 0 37.49 0 45.94 0 54.4 0 62.85 0 71.3 0 79.75 0 88.21 0 96.66 0 105.11 8.45 105.11 16.9 105.11 25.36 105.11 33.81 105.11 25.36 96.66 25.36 88.21 25.36 79.75 25.36 71.3 25.36 68.82 27.83 71.3 31.33 71.3 33.81 68.82 36.28 71.3 39.78 71.3 42.26 68.82 44.74 71.3 48.24 71.3 50.71 68.82 50.71 71.3 50.71 79.75 50.71 88.21 50.71 96.66 50.71 105.11 59.17 105.11 67.62 105.11 71.75 105.11 76.07 105.11 84.52 105.11 76.07 96.66 76.07 88.21 76.07 79.75 76.07 71.3 76.07 62.85 76.07 54.4 76.07 45.94 76.07 37.49 76.07 29.04 76.07 20.59 67.62 20.59"/>
        <polygon class="cls-2" points="102.24 20.6 91.74 20.6 84.31 28.03 84.31 38.53 91.74 45.96 102.24 45.96 109.67 38.53 109.67 28.03 102.24 20.6"/>
        <rect class="cls-1" x="95.55" y="24.31" width="10.4" height="10.4"/>
        <polygon class="cls-3" points="109.88 96.66 109.88 96.66 109.88 88.2 109.88 79.75 109.88 60.38 109.88 58.62 109.88 56.88 107.4 54.4 103.9 54.4 101.43 56.88 98.95 54.4 95.45 54.4 92.97 56.88 90.5 54.4 87 54.4 84.52 56.88 84.52 58.62 84.52 60.38 84.52 79.75 84.52 88.2 84.52 96.66 84.52 105.11 92.97 105.11 101.43 105.11 92.97 96.66 101.43 96.66 101.43 105.11 106.88 105.11 109.88 105.11 118.33 105.11 109.88 96.66"/>
        <polygon class="cls-3" points="194.39 71.3 194.4 71.3 194.4 79.75 194.4 88.2 202.85 96.66 211.3 105.11 202.85 105.11 194.4 105.11 185.95 105.11 177.5 105.11 169.04 105.11 169.04 96.66 169.04 88.2 169.04 79.75 160.59 71.31 152.14 79.76 152.14 79.75 143.69 88.2 152.14 96.66 160.59 105.11 152.14 105.11 143.69 105.11 135.24 105.11 126.78 105.11 118.33 105.11 118.33 96.66 118.33 88.2 118.33 79.75 118.33 71.3 118.33 45.94 118.33 37.49 118.33 29.04 126.78 20.59 135.24 20.59 143.69 20.59 143.69 29.04 143.69 37.49 143.69 45.94 143.69 54.4 143.69 54.4 152.14 45.94 160.59 37.49 169.04 29.04 177.5 20.59 185.95 20.59 194.4 20.59 194.4 29.04 194.4 37.49 185.95 45.94 177.5 54.4 177.49 54.4 177.5 54.4 194.39 71.3"/>
        <polygon class="cls-2" points="185.96 20.59 182.46 20.59 179.98 23.06 179.98 26.56 182.46 29.04 185.96 29.04 188.44 26.56 188.44 23.06 185.96 20.59"/>
        <polygon class="cls-2" points="194.41 20.59 190.91 20.59 188.44 23.06 188.44 26.56 190.91 29.04 194.41 29.04 196.89 26.56 196.89 23.06 194.41 20.59"/>
        <polygon class="cls-2" points="48.24 45.94 44.74 45.94 42.26 48.42 42.26 51.92 44.74 54.4 48.24 54.4 50.71 51.92 50.71 48.42 48.24 45.94"/>
        <rect class="cls-1" x="47.24" y="48.43" width="3.47" height="3.47"/>
        <polygon class="cls-2" points="39.79 45.94 36.29 45.94 33.81 48.42 33.81 51.92 36.29 54.4 39.79 54.4 42.26 51.92 42.26 48.42 39.79 45.94"/>
        <rect class="cls-1" x="38.79" y="48.43" width="3.47" height="3.47"/>
        <path class="cls-3" d="m251.09,43.47l2.47-2.48v18.36l-2.47-2.48h-3.5l-2.48,2.48-2.47-2.48h-3.5l-2.48,2.48-2.48-2.48h-3.5l-2.48,2.48v-18.36l2.48,2.48h3.5l2.48-2.48,2.48,2.48h3.5l2.47-2.48,2.48,2.48h3.5Zm2.47-22.88h-50.71v50.71h0v16.9l8.45,8.45h0s8.45,8.46,8.45,8.46h33.81l-8.45-8.45-8.45-8.45-8.45-8.45h8.45s8.45,0,8.45,0h8.45v16.9l8.45,8.45h33.81l-8.45-8.45-8.45-8.45v-16.9l-8.45-8.45,8.45-8.45v-16.9l-8.46-8.45-8.45-8.45h0s-8.45,0-8.45,0Z"/>
        <polygon class="cls-2" points="233.16 15.64 228.21 20.59 228.21 27.6 233.16 32.54 240.16 32.54 245.11 27.6 245.11 20.59 240.16 15.64 233.16 15.64"/>
        <rect class="cls-1" x="233.19" y="20.62" width="6.94" height="6.94"/>
        <polygon class="cls-2" points="250.06 15.64 245.11 20.59 245.11 27.6 250.06 32.54 257.07 32.54 262.02 27.6 262.02 20.59 257.07 15.64 250.06 15.64"/>
        <rect class="cls-1" x="250.1" y="20.62" width="6.94" height="6.94"/>
        <rect class="cls-1" x="193.42" y="23.08" width="3.47" height="3.47"/>
        <rect class="cls-1" x="184.97" y="23.08" width="3.47" height="3.47"/>
        <polygon class="cls-3" points="75.58 123.26 75.58 130.24 68.87 130.24 68.87 123.26 65.32 123.26 65.32 141 68.87 141 68.87 133.33 75.58 133.33 75.58 141 79.13 141 79.13 123.26 75.58 123.26"/>
        <path class="cls-3" d="m83.18,127.58h3.5v13.42h-3.5v-13.42Zm1.77-2.16c-.61,0-1.11-.18-1.51-.54-.4-.36-.6-.82-.6-1.38s.2-1.04.6-1.39c.4-.35.9-.53,1.51-.53s1.11.18,1.5.53c.39.35.59.82.59,1.39s-.2,1.02-.59,1.38c-.39.36-.89.54-1.5.54"/>
        <polygon class="cls-3" points="100.25 123.26 94.37 130.96 94.3 130.96 94.3 123.26 90.75 123.26 90.75 141 94.3 141 94.3 136.02 96.63 133.04 101.21 141 105.11 141 98.74 130.24 104.16 123.26 100.25 123.26"/>
        <g>
          <path class="cls-3" d="m110.75,131.48h2.3c1.15,0,2.03-.24,2.63-.71.6-.47.9-1.19.9-2.14s-.3-1.63-.9-2c-.6-.37-1.47-.56-2.63-.56h-2.3v5.42Zm6.11,9.52l-3.64-6.71h-2.47v6.71h-3.55v-17.74h6.19c.93,0,1.8.09,2.61.26.82.18,1.52.47,2.12.89.6.42,1.07.97,1.41,1.65.34.69.52,1.54.52,2.57,0,1.34-.31,2.43-.92,3.26-.62.83-1.44,1.45-2.46,1.85l4.15,7.26h-3.96Z"/>
          <path class="cls-3" d="m136.61,141.34c-1.22,0-2.34-.2-3.38-.6-1.04-.4-1.94-.98-2.7-1.75-.76-.77-1.36-1.72-1.79-2.85-.43-1.13-.64-2.45-.64-3.93s.22-2.76.67-3.91c.45-1.15,1.06-2.13,1.82-2.92.77-.8,1.67-1.41,2.7-1.82,1.03-.41,2.14-.62,3.32-.62,1.28,0,2.37.23,3.27.69.9.46,1.64.99,2.22,1.58l-1.89,2.25c-.43-.41-.91-.77-1.45-1.05-.54-.29-1.21-.43-2.03-.43-.74,0-1.41.14-2.03.42-.62.28-1.14.68-1.58,1.21-.44.53-.78,1.17-1.03,1.92-.25.75-.37,1.6-.37,2.57,0,1.93.44,3.45,1.32,4.54.88,1.1,2.19,1.64,3.93,1.64.43,0,.85-.06,1.25-.17.4-.11.73-.28.98-.5v-3.5h-3.14v-2.9h6.3v8.01c-.61.59-1.41,1.1-2.4,1.51-.99.42-2.11.62-3.36.62"/>
          <path class="cls-3" d="m149.72,131.48h2.3c1.15,0,2.03-.24,2.63-.71.6-.47.9-1.19.9-2.14s-.3-1.63-.9-2c-.6-.37-1.47-.56-2.63-.56h-2.3v5.42Zm6.11,9.52l-3.64-6.71h-2.47v6.71h-3.55v-17.74h6.19c.93,0,1.8.09,2.61.26.82.18,1.52.47,2.12.89s1.07.97,1.41,1.65c.34.69.52,1.54.52,2.57,0,1.34-.31,2.43-.92,3.26-.61.83-1.43,1.45-2.46,1.85l4.15,7.26h-3.96Z"/>
          <path class="cls-3" d="m169.57,138.27c.65,0,1.25-.14,1.79-.43.54-.29.99-.7,1.37-1.25.37-.54.66-1.2.86-1.97.2-.77.3-1.62.3-2.57,0-1.92-.39-3.41-1.16-4.48-.78-1.07-1.83-1.61-3.15-1.61s-2.38.54-3.15,1.61c-.78,1.07-1.16,2.56-1.16,4.48,0,.94.1,1.8.3,2.57.2.77.49,1.42.86,1.97.38.54.83.96,1.37,1.25.53.29,1.13.43,1.79.43m0,3.07c-1.18,0-2.26-.21-3.22-.64-.97-.42-1.8-1.04-2.51-1.85-.7-.81-1.25-1.78-1.63-2.92-.38-1.14-.57-2.43-.57-3.87s.19-2.72.57-3.86c.38-1.13.93-2.09,1.63-2.88.7-.78,1.54-1.38,2.51-1.79.97-.41,2.04-.61,3.22-.61s2.24.21,3.21.62c.98.42,1.81,1.01,2.52,1.79.7.77,1.25,1.73,1.63,2.86.38,1.14.57,2.42.57,3.86s-.19,2.73-.57,3.87c-.38,1.14-.93,2.12-1.63,2.92-.7.81-1.54,1.42-2.52,1.85-.97.42-2.04.64-3.21.64"/>
          <path class="cls-3" d="m187.79,141.34c-1.09,0-2.05-.16-2.9-.47-.85-.31-1.57-.8-2.17-1.47-.6-.67-1.06-1.53-1.37-2.59-.31-1.05-.47-2.32-.47-3.79v-9.76h3.55v10.07c0,.93.08,1.71.23,2.34.15.63.37,1.14.66,1.52.29.38.64.66,1.06.83.41.17.89.25,1.41.25s1-.09,1.43-.25c.42-.17.79-.44,1.09-.83.3-.38.54-.89.7-1.52.16-.63.24-1.41.24-2.34v-10.07h3.41v9.76c0,1.47-.15,2.73-.45,3.79-.31,1.06-.75,1.92-1.34,2.59-.59.67-1.31,1.16-2.16,1.47-.85.31-1.81.47-2.9.47"/>
          <path class="cls-3" d="m198.91,123.26h3.62l5.15,9.44,1.77,3.84h.12c-.1-.93-.2-1.94-.3-3.05s-.15-2.16-.15-3.16v-7.07h3.33v17.74h-3.59l-5.13-9.49-1.8-3.81h-.12c.08.96.17,1.97.27,3.04.1,1.07.16,2.12.16,3.14v7.12h-3.33v-17.74Z"/>
          <path class="cls-3" d="m221.52,138.15c.83,0,1.58-.12,2.24-.35.66-.23,1.23-.59,1.69-1.08.46-.49.82-1.12,1.07-1.89.25-.77.37-1.7.37-2.79s-.13-2.01-.37-2.78c-.25-.76-.6-1.38-1.07-1.85-.46-.47-1.03-.82-1.69-1.03-.66-.22-1.41-.33-2.24-.33h-1.1v12.08h1.1Zm-4.65-14.89h4.87c1.36,0,2.58.18,3.66.53,1.08.35,2,.89,2.76,1.62.76.73,1.34,1.64,1.75,2.74.41,1.1.61,2.41.61,3.91s-.2,2.79-.61,3.91c-.41,1.12-.98,2.05-1.72,2.79-.75.74-1.64,1.3-2.7,1.68-1.06.38-2.24.56-3.55.56h-5.06v-17.74Z"/>
        </g>
      </g>
      <path class="cls-3" d="m588.55,12.18c.21,1.15-.22,2.31,0,3.1,0,.03.32.2.39.3.34.53-.05,1.44.7,1.6.59.15,1.25-.48,1.89-.6.86-1.61.99-3.41,1.3-5.49.5-3.31,1.53-6.75,2.1-9.87-.56-1.75-3.67-1.35-4.89-.39-.77,3.42-1.4,6.97-1.79,10.77-.09.39.43.16.3.6Zm-32.12-2.89c.98.68,2.48,1.15,3.09,2.09h.5c1.51,1.73,3.39,2.89,5.49,4.19,1.7,1.07,3.11,2.26,5.18,2.49.12-.19.26-.34.41-.5-.23-.93-.55-1.79-1.1-2.39-.35-.31-.8.08-.8-.51.28.15.86.34,1,.1-.85-.45-1.08-1.3-1.79-1.99-.83-.81-2.53-2.2-3.59-2.99-1.46-1.1-3.61-3.25-5.29-3.7-.89-.23-2.73.28-3.49.8-1.19.81-.45,1.8.4,2.4Zm62.64,6.08c1.19-.66,2.33-1.44,3.49-1.79,1.14-.35,2.9-1.03,2.49-2.29-1.55-1.28-3.22-.55-4.49.2-1.94,1.13-3.83,1.58-4.89,3.19-2.14.33-3.28,2.5-5.39,3.2-.52,1.71-2.99,1.98-3.19,3.69,2.06-.3,3.36-1.48,5.18-2.39,2.4-1.2,4.5-2.52,6.79-3.8Zm67.23,6.58c-1.1-.98-3.64-.37-4.69.2-1.55,6.16-2.56,12.81-3.59,19.65-.7,4.65-.68,9.43-1.6,14.07-.45,2.27-.63,4.64-1,6.88-.39,2.3-.92,4.59-1.2,6.88-.29,2.34-.02,4.85-1.09,6.98-2.9-7.46-5.15-15.3-8.68-21.94-.51-.95-1.18-1.83-1.6-2.79-.5-1.16-.54-2.43-1.3-3.39-.74-.27-1.7-.44-2.39-.5-.37.41-.79,0-1.3.39-.83.64-1.14,4.26-1.4,5.88-.86,5.37-1.64,10.47-2.3,15.86-.2,1.62-.23,3.15-.2,4.5.06,2.43-.61,4.98-.9,7.28-.32,2.52-1,4.8-1.2,6.98,1.24.63,2.94.27,4.19-.1,3.25-8.29,3.02-20.13,4.89-29.73,1.47,2.44,2.52,5.24,3.49,7.98,3.04,8.56,5.87,17.23,8.58,25.94.51.16.57.75,1,.99,1.65.03,3.49-.15,4.2-.99.74-.9.43-3.54.49-4.99.25-5.98.24-11.13.7-17.45.28-3.98,1.36-8.01,1.8-12.17.43-4.17,1.12-8.37,1.39-12.57.27-4.19.74-8.35,1.8-12.16.52-1.89.86-3.83,1.1-5.69.26-2.07.96-4.01.8-5.99Zm-39,24.14c-.3.36-.54,1.89-.69,2.69-.62,3.21-1.34,5.72-2,8.38-.74,2.96-1.13,5.94-1.69,8.68-.19.93-.17,2-.8,2.69-.91-9.05-1.63-17.69-3.2-26.04-.93-.67-3.27-1.71-4.38-.4-.35,1.62.51,4.11.2,5.58-.29,1.39-1.41,3.03-2.19,4.6-1.57,3.13-3.4,5.63-5.09,8.48-.63,1.06-1.62,4.07-2.5,4.38-1.09.39-2.85-.63-4.29-.1-1.04-1.61-2.71-2.61-4.39-3.59,2.69-1.8,6.25-3.55,9.08-6.19,2.75-2.56,5.49-5.23,6.38-8.98.82-3.43-.38-6.4-2.29-7.88-4.24-3.26-11.46-2.69-16.96-.69-3.63,1.31-6.16,3.08-7.98,5.88-.6.93-.91,2.13-1.9,2.79.5-3.76.55-7.97,1.9-10.87,2.93-.53,6.36-.39,10.27-.8,3.38-.34,8.5-.29,11.38-1.59.45-.21,1.06-.6,1.2-1,.92-2.83-5.07-4.02-7.48-4.59-3.58-.85-7.4-1.59-10.58-2.1-3.68-.58-8.29-.82-12.07-.99-4.66-.22-10.47,0-15.36.19-3.03.13-6.13.35-9.08.7-2.87.34-5.69,1.04-7.59,2.5.59.72,1.76,1.33,2.99,1.09.52.44,1.21,1.16,2,.99.44.84,1.47,1.08,2.3,1.5,2.6,1.33,5.83,1.94,9.17,2.39,4.48.62,9.4,1.17,13.56,1.2,1.72,0,2.79-.09,4.39.29-1.81,4.44-1.97,9.76-2.59,14.86-1.54,12.65-3.61,25.88-5.99,37.1-.5,2.39-.6,4.88-1.49,7.09-2.94.35-4.92-.13-8.48.3.98-1.68,2.37-3.02,3.5-4.59,1.15-1.62,2.01-3.41,2.98-5.18,1.91-3.47,3.79-7.21,4.49-11.77,1.15-4.25,2.12-8.88,2.99-14.17.81-4.93.39-11.36-2.3-14.26-.41-.45-1.5-1.25-2.09-1.3-.49-.03-1.13.34-1.69.4-.54.06-1.16-.03-1.6,0-5.36.31-8.03,4.29-10.67,7.48-1.29,1.57-2.55,3.23-3.69,4.98-2.76,4.26-5.93,9.11-7.09,14.36.27.27.55.53.9.71.27.08.68-.52,1.09-.3-.09-.82.78-.91,1.2-1.4.56-.65.82-1.84,1.3-2.79,1.08-2.14,2.27-3.98,3.39-5.78.64-1.03,1.23-2.1,2.19-2.79.36-1.14,1.17-1.67,1.8-2.49,1.19-1.56,2.37-3.09,3.58-4.59.78-.94,1.81-1.79,2.7-2.69.92-.93,1.9-1.96,3.2-2.29,1.37.43,1.66,1.83,2.09,3.09.61,1.8.94,3.71,1,5.68.02.52.22,1.16.2,1.5-.01.45-.34,1.05-.39,1.6-.44,4.2-1.15,8.31-2.09,11.87-1.08,4.12-1.89,8.48-3.59,12.27-2.52,5.63-5.43,10.57-9.87,14.17-2.73,2.19-6.75,5.21-10.47,2.7-2.92-1.97-4.32-5.9-4.49-10.49-.18-4.65,1.29-9.22,1.59-13.16,1.07-2.75,1.72-5.6,2.8-8.38,2.05-5.31,4.51-10.61,7.38-15.16,1.43-2.28,3.07-4.67,4.89-6.38.41-.39,1.71-1.02,1.59-1.7-.17-.96-2.79-.84-3.99-.4-.8.29-1.77.95-2.4,1.5-1.72,1.47-3.31,3.73-4.69,5.88-1.46,2.27-2.49,4.83-3.9,6.59.5-5.68,1.53-13.93-2.19-16.76-.98.31-.96-.51-1.59-.7-.86-.26-2.64.06-3.69.3-1.58.36-3,1.15-3.89,1.89-3.68,3.11-7.08,8.47-9.48,12.27-1.18,2.65-3.19,6.52-4.19,9.77-.23.74-.52,1.45-.39,2,.3,1.47,1.95,1.05,2.69.4,1.11-.99,1.68-3.04,2.19-4.59,2.13-3.33,3.9-6.89,6.18-10.08,1.1-1.54,2.34-3.14,3.6-4.59,1.24-1.45,2.49-3.04,4.19-3.99,1.36,1.3,1.44,3.88,1.59,6.39-.21.51.51.08.41.49-.7,1.09-.4,3.03-.5,4.79-.11,1.73-.65,3.23-.3,4.59-.56.67-.61,1.59-.8,2.4-1.42,6.11-3.27,11.93-5.79,16.95-1.4,2.81-3.02,5.56-4.78,8.18-2.23,3.32-4.79,6.51-8.19,8.48-2.09,1.21-3.81,1.07-4.98-.8-3.11-4.99-1.58-12.81-.4-18.95.83-4.3,1.82-8.28,3.19-11.97,1.4-3.77,2.84-7.43,4.49-10.67,1.27-2.52,2.96-4.74,4.48-6.89.51-.71,1.37-1.17,1.5-2.09-.7-.77-2.31-.67-3.5-.51-2.47.36-4.37,3.83-5.58,5.59-2.76,4-4.29,8.43-6.09,13.06-1.07,2.76-2.29,5.49-2.49,8.28-.87,1.29-.97,3.25-1.3,5.2-.24,1.48-.66,3.01-.79,4.39-.18,1.83-.06,3.63-.6,5.18-1.95.81-3.42,2.17-5.29,3.1-.35.18-.83.2-1.2.4-.75.42-1.54,1.19-2.3,1.8-2.23,1.79-4.58,4.02-6.88,5.38-.64.38-1.5.93-2.2.9-1.95-.08-3.03-3.35-3.29-5.69-.29-2.62.17-5.32.5-7.67.76-5.56,1.52-10.7,2.89-15.17,1.36-4.39,3.48-8.57,5.29-12.67,1.4-3.17,2.82-6.29,4.29-9.17.49-.97,1.26-1.84,1.3-2.9.62-.44.94-1.25,1.29-1.89.39-.7.74-1.39,1.1-2.1,1.8-3.45,4.11-6.74,6.58-9.37.49-.52,1.27-.9,1.4-1.7,1.43,1.2,1.74,4.19,1.5,6.79-.81,8.43-5.41,15.53-7.59,22.44.66,1.98,4.36,1.43,5.59.1.46-.5.9-1.85,1.39-2.9,1.03-2.16,1.65-4.15,2.49-6.18.39-.93.86-1.87,1.3-2.89,1.95-4.55,3.24-9.42,2.8-14.36-.07-.82-.2-1.1-.7-1.5.48-.12.26-.64.2-.9-.27-1.22-1.8-3.15-2.99-3.48-1.25-.35-3.77.08-4.89.19-.59.06-1.21-.1-1.59,0-1.69.45-2.68,2.11-3.6,2.69-.91,1.18-2.26,1.94-2.78,3.49-.98.28-.99,1.15-1.5,1.6-.14.12-.3.27-.41.4-1.61,2.07-2.96,4.82-4.29,7.38-2.72,5.24-5.07,10.42-7.48,16.05-1.21,2.85-2.98,6.14-3.39,9.48-.55,1.03-.97,2.09-1.4,3.29-1.08,3.07-1.44,7.08-2.09,10.97-.57,3.46-1.25,7.11-1,10.38.37,4.68,2.73,10.03,8.08,8.77,1.86-.43,4.19-1.45,5.69-2.29.51-.29.87-.84,1.39-1.2.57-.39,1.16-.7,1.7-1.09,2.13-1.59,4.23-3.3,6.18-4.99,1.04-.91,2.03-1.94,3.29-2.39,1.01,5.62,2.44,11.63,8.58,11.47.61-.34,1.47-.45,2-.89,8.37-1.89,13.13-9.16,17.35-15.67.57-.87.96-2.11,2-2.39-.08,4.18-.9,8.81-.2,12.86.19,1.04.87,2.99,1.3,3.79.24.45.81.67,1.1,1.1.16.24.15.65.3.9,1.15,1.91,3.03,2.88,5.09,3.79.81-.18,1.61.13,2.39.1,2.2-.1,3.69-1.1,5.38-1.7.41-.15.82-.04,1.21-.2.75-.32,1.19-1.03,1.8-1.5.51-.41,1.08-.65,1.39-1.09.44-.36.21.53.6.19.56-.28.26-.86.89-.99,1.52,3.68,2.3,7.46,5.79,9.27,1.06.55,2.9.97,4.38.99,1.85.05,4.24-1.06,6.08-2.28.64-2.95.71-6.48,1.8-8.99,4.48-.65,7.67-1.4,12.17-2.19.07-.48.71-.42,1-.69-2.03-.59-3.55-.65-5.59-.61-2.47.06-4.87.51-7.08.11.14-2.17,1.51-4.79.8-6.28,1.16-2.36,1.46-5.13,1.89-7.88.45-2.75,1.01-5.58,1.5-8.37,1-5.67,1.62-11.46,2.7-16.96,1.17,1.85,3.72.48,4.79-.6.34-5.43,1.62-10.16,5.28-12.76,4.16-2.96,14.76-4.35,14.76,3.29,0,1.48-.73,3-1.39,4.29-1.58,3.03-3.51,4.76-5.98,6.79-1.39,1.13-2.74,2.43-4.29,2.99,1.01-4.02,1.2-8.27,2.19-11.87.35-1.24,1.01-2.39.91-3.69-1.18-1.11-4.21-1.35-5.19-.1-.61.77-1.08,3.66-1.4,5.19-1.15,5.61-2.24,11.52-3.39,16.25-.89,3.66-1.5,7.48-2.3,10.98-.38,1.66-.86,3.51-1.2,5.39-.5,2.79-1.48,5.55-.49,7.98.91.23,1.16-.21,1.89.2.75-.61.82-.22,2.1-.39,1.81-7.54,3.22-15.33,5.28-22.85,2.71,1.28,4.11,6.06,4.79,9.88.24,1.36.44,3.17.2,4.49-.29,1.61-2.12,2.52-1.8,4.18.56.59.48-.5,1-.2.65.9.12,2,0,2.99-.39,3.23-1.09,6.49-1.9,9.77-.38,1.55-.58,3.24-1,4.79-.42,1.6-.99,3.18-1.19,4.69-.13.92.08,1.97-.6,2.7-6.95-.17-16.28-.11-23.04.1-3.74.12-7.53.47-11.27.6-4.33.14-8.9.34-12.86.7-2.56.23-5.58-.45-7.59,1,.35,1.11,1.1,1.57,2.2,1.69,1.95.22,4.25-.15,6.28-.3,2.05-.15,4.09-.28,6.09-.39,11.64-.65,26.48-1.98,40.1-1.09.49.92.58,1.17,1.59.99.7-.13,1.3-.31,1.7-.7,2.86-.44,7.21.12,10.37.5.74.09,2.58.08,2.59.6,0,.11-2.29,1.07-2.89,1.29-1.39.53-2.18.77-3.19,1.1-8.44,2.78-15.37,4.78-24.24,6.48-3.26.63-6.75,1.3-9.37,1.6-2.34.26-4.43.07-7.48.5-.55.08-3.08.52-3.09,1.2-.02.44,1.05,1.06,1.29,1.09.3.06.77-.21,1.19-.19.46,0,.75.22,1.1.19,1.68-.08,3.38-.45,5.18-.49,1.92-.04,3.93-.04,5.99-.2,14.58-1.15,30.05-.89,44.29-1.19,1.17-.02,2.35.35,3.29-.1-.87-.67-2.94-.86-4.39-.98-6.05-.52-12.54-.6-19.15-.6-3.08,0-6.29.18-8.78-.3,1.96-.94,4.18-1.26,6.38-1.79,2.1-.52,4.2-1.3,6.29-1.9,3.26-.94,6.51-1.79,9.37-2.89,1.04-.41,2.11-.63,3.1-.99.97-.37,2.38-1.1,2.69-1.99-2.19-1.87-5.59-2.19-8.68-2.51-3.17-.31-6.87-.46-10.07-.99,2.04-8.18,4.74-16.45,5.87-25.53.17-1.36,0-2.94.31-4.29.15-.76.94-1.57,1.39-2.49,1.33-2.66,2.23-5.87,3.59-8.18,2.63-.64,4.47-.52,7.48-.6.77,7.81.94,16.55,1.29,24.35.06,1.16.01,2.55.21,3.59.08.46.42.7.59,1.2.2.58.05,1.18.4,1.7.83.29,1.43.28,2.5.39.31-.42.61-.85.8-1.39.33,0,.07.59.5.49.3-1.97.25-3.75.2-5.78-.03-1.53-.42-3.61-.2-5.18.09-.63.51-1.12.69-1.7.96-3.04,1.58-6.29,2.4-9.47.83-3.24,1.58-6.49,2.19-9.77,1.22-6.52,2.94-12.97,3.89-19.56-1.14-.79-3.78-1.61-4.79-.4Zm-59.84,58.65c-3.11-.66-4.59-3.45-4.88-6.58,1.66-.3,4.21-.41,6.27-.41-.05,2.34-.87,4.79-1.39,6.99Zm-1.69-73.31c-4.42-.5-9.19-1.24-12.27-3.69,5.31-1.1,11.3-1.03,17.05-1.3,7.27-.35,15.48.84,22.25,1.99,2.52.42,4.99.61,7.08,1.2,1.08.3,2.18.76,2.99,1.59-2.33.93-4.56.73-7.38.9-3.11.19-6.22.56-9.48.6-6.66.08-13.78-.55-20.24-1.3Zm37.41,38.9c-.2-.71-.67-1.13-.7-2,.38-.11.8-.2,1.29-.2,0,.18.08.27.2.3-.24.65-.42,1.37-.79,1.9Zm7.38-5.39c1.17-3.08,3.11-5.4,4.59-8.17h.3c.68,2.74.56,5.17.99,8.27-1.71.12-4.33.28-5.88-.1Zm-131.87-35.01c-.14-.46-1.64-1.08-2.49-1.09-.59,0-1.37.26-1.69.6-.67.7-1.31,1.99-2,3-1.99,2.94-4.21,6.35-5.99,9.07-.1.4.3.3.2.7-.72,1.96-3.29,4.67-2.19,6.68,1.3.04,2.29-.23,2.6-1.2.21-.2.42.16.79.1,2.78-4.27,5.4-8.82,8.19-13.27.39-.63,2.9-3.54,2.59-4.59Zm39.23,52.03c1.29.03,2.29-.24,2.59-1.2.22-.2.42.16.8.1,2.78-4.27,5.4-8.81,8.18-13.27.39-.63,2.9-3.53,2.59-4.59-.13-.47-1.64-1.1-2.49-1.1-.59,0-1.36.26-1.69.6-.68.7-1.32,1.99-2,3-1.99,2.94-4.2,6.36-5.99,9.08-.09.39.3.3.2.7-.74,1.97-3.3,4.67-2.19,6.69Zm-31.65-45.44c.45-.73,2.18-3.05,2.09-3.89-.08-.75-1.49-1.29-2.29-1.39-2.92-.38-3.24,2.15-4.29,3.8-1.88,2.95-4.23,6.17-5.79,8.87-.01,1.82-1.37,3.15-1.89,4.79.26-.06.36.03.3.3-.24.7-.57.99-.4,1.9.83.4,1.3-.33,2.4-.4.24-.06-.05-.64.3-.6.41.07.57-.09.9-.1,1.46-1.98,2.55-3.89,3.89-6.09,1.58-2.57,3.17-4.6,4.79-7.18Zm63.27,47.44c.83.4,1.3-.33,2.4-.41.24-.06-.05-.65.3-.6.4.06.57-.09.89-.1,1.46-1.98,2.54-3.89,3.89-6.08,1.59-2.57,3.18-4.6,4.79-7.18.45-.74,2.19-3.06,2.1-3.9-.08-.75-1.5-1.29-2.3-1.4-2.92-.39-3.24,2.15-4.29,3.79-1.89,2.95-4.23,6.18-5.79,8.88-.02,1.81-1.37,3.16-1.9,4.79.26-.06.36.04.3.3-.24.69-.57.99-.4,1.9Zm81.07-39.15c.41.05.21-.52.59-.5,2.24,1.85,1.61-3.53,1.69-5.09.13-2.13.63-4.02.8-5.48-1.18-.99-3.76-1.66-4.78-.5-.32.36-.65,1.73-.9,3.1-.47,2.52-.56,5.4,0,7.48.28,1.04,2.01.8,2.6,1Zm41.79-6.19c-.27-1.26-3-1.93-3.79-.7-1.31,3.91-2.54,8.65-3.19,12.97-.16,1.06-.56,2.35-.5,3.28.01.23.39,1.13.5,1.9.14,1.04.08,1.16.6,1.59.51.45.75.96,1.3,1,.65.05.59-.54,1.09-.51.63-2.09.82-4.49,1.29-7.08.13-.73.6-1.49.7-2.29.28-2.27.36-3.71.89-5.88.32-1.32,1.27-3.48,1.1-4.29Zm3.89-.8c-.48,1.57-1.03,3.16-1.59,4.89-.61,1.87-1.46,3.83-1.5,5.68-.03,2.02-1.62,3.91-.39,5.69.43-.24.33-.1.7.09,2.33-1.29,2.32-4.25,3.48-7.08.18-.43.47-.7.6-1.09.81-2.45,1.59-5.08,1.69-7.48-.94-.22-1.84-1.33-2.99-.7Z"/>
    </g>
  </g>
</svg>