<?xml version="1.0" encoding="UTF-8"?>
<svg id="_레이어_2" data-name="레이어 2" xmlns="http://www.w3.org/2000/svg" viewBox="0 0 433.46 190.71">
  <defs>
    <style>
      .cls-1 {
        fill: #050000;
      }

      .cls-1, .cls-2, .cls-3 {
        stroke-width: 0px;
      }

      .cls-2 {
        fill: #c7c9c9;
      }

      .cls-3, .cls-4 {
        fill: #fff;
      }

      .cls-4 {
        font-family: Pretendard-Medium-KSCpc-EUC-H, Pretendard;
        font-size: 24px;
        font-weight: 500;
      }
    </style>
  </defs>
  <g id="mobile">
    <g>
      <g>
        <polygon class="cls-3" points="263.85 26.93 263.09 26.18 242.78 46.49 222.47 26.18 221.72 26.93 242.03 47.24 221.72 67.55 222.47 68.3 242.78 48 263.09 68.3 263.85 67.55 243.54 47.24 263.85 26.93"/>
        <g>
          <polygon class="cls-3" points="45.3 13.79 39.64 13.79 33.98 19.46 33.98 25.12 33.98 30.78 33.98 32.44 32.32 30.78 29.97 30.78 28.32 32.44 26.66 30.78 24.31 30.78 22.65 32.44 20.99 30.78 18.65 30.78 16.99 32.44 16.99 30.78 16.99 25.12 16.99 19.46 16.99 13.79 11.33 13.79 5.66 13.79 0 19.46 0 25.12 0 30.78 0 36.44 0 42.11 0 47.77 0 53.44 0 59.1 0 64.76 0 70.42 5.66 70.42 11.33 70.42 16.99 70.42 22.65 70.42 16.99 64.76 16.99 59.1 16.99 53.44 16.99 47.77 16.99 46.11 18.65 47.77 20.99 47.77 22.65 46.11 24.31 47.77 26.66 47.77 28.32 46.11 29.97 47.77 32.32 47.77 33.98 46.11 33.98 47.77 33.98 53.44 33.98 59.1 33.98 64.76 33.98 70.42 39.64 70.42 45.3 70.42 48.08 70.42 50.97 70.42 56.63 70.42 50.97 64.76 50.97 59.1 50.97 53.44 50.97 47.77 50.97 42.11 50.97 36.44 50.97 30.78 50.97 25.12 50.97 19.46 50.97 13.79 45.3 13.79"/>
          <polygon class="cls-2" points="68.5 13.8 61.46 13.8 56.49 18.78 56.49 25.81 61.46 30.79 68.5 30.79 73.48 25.81 73.48 18.78 68.5 13.8"/>
          <rect class="cls-1" x="64.02" y="16.29" width="6.97" height="6.97"/>
          <polygon class="cls-3" points="73.62 64.76 73.62 64.76 73.62 59.1 73.62 53.43 73.62 40.45 73.62 39.28 73.62 38.11 71.96 36.45 69.62 36.45 67.96 38.11 66.3 36.45 63.95 36.45 62.29 38.11 60.63 36.45 58.29 36.45 56.63 38.11 56.63 39.28 56.63 40.45 56.63 53.43 56.63 59.1 56.63 64.76 56.63 70.42 62.29 70.42 67.96 70.42 62.29 64.76 67.96 64.76 67.96 70.42 71.61 70.42 73.62 70.42 79.28 70.42 73.62 64.76"/>
          <polygon class="cls-3" points="130.25 47.77 130.25 47.77 130.25 53.43 130.25 59.1 135.91 64.76 141.58 70.42 135.91 70.42 130.25 70.42 124.59 70.42 118.92 70.42 113.26 70.42 113.26 64.76 113.26 59.1 113.26 53.43 107.6 47.78 101.93 53.44 101.93 53.43 96.27 59.1 101.93 64.76 107.6 70.42 101.93 70.42 96.27 70.42 90.61 70.42 84.95 70.42 79.28 70.42 79.28 64.76 79.28 59.1 79.28 53.43 79.28 47.77 79.28 30.78 79.28 25.12 79.28 19.46 84.95 13.79 90.61 13.79 96.27 13.79 96.27 19.46 96.27 25.12 96.27 30.78 96.27 36.45 96.27 36.45 101.93 30.78 107.6 25.12 113.26 19.46 118.92 13.79 124.59 13.79 130.25 13.79 130.25 19.46 130.25 25.12 124.59 30.78 118.92 36.45 118.92 36.45 118.92 36.45 130.25 47.77"/>
          <polygon class="cls-2" points="124.59 13.79 122.25 13.79 120.59 15.45 120.59 17.8 122.25 19.46 124.59 19.46 126.25 17.8 126.25 15.45 124.59 13.79"/>
          <polygon class="cls-2" points="130.26 13.79 127.91 13.79 126.25 15.45 126.25 17.8 127.91 19.46 130.26 19.46 131.92 17.8 131.92 15.45 130.26 13.79"/>
          <polygon class="cls-2" points="32.32 30.78 29.97 30.78 28.32 32.44 28.32 34.79 29.97 36.45 32.32 36.45 33.98 34.79 33.98 32.44 32.32 30.78"/>
          <rect class="cls-1" x="31.65" y="32.45" width="2.32" height="2.32"/>
          <polygon class="cls-2" points="26.66 30.78 24.31 30.78 22.65 32.44 22.65 34.79 24.31 36.45 26.66 36.45 28.32 34.79 28.32 32.44 26.66 30.78"/>
          <rect class="cls-1" x="25.99" y="32.45" width="2.32" height="2.32"/>
          <path class="cls-3" d="m168.23,29.13l1.66-1.66v12.3l-1.66-1.66h-2.35l-1.66,1.66-1.66-1.66h-2.35l-1.66,1.66-1.66-1.66h-2.35l-1.66,1.66v-12.3l1.66,1.66h2.35l1.66-1.66,1.66,1.66h2.35l1.66-1.66,1.66,1.66h2.35Zm1.66-15.33h-33.98v33.97h0v11.33l5.66,5.66h0s5.66,5.67,5.66,5.67h22.65l-5.66-5.66-5.66-5.66-5.66-5.66h5.66s5.66,0,5.66,0h5.66v11.32l5.66,5.66h22.65l-5.66-5.66-5.66-5.66v-11.33l-5.66-5.66,5.66-5.66v-11.33l-5.67-5.66-5.66-5.66h0s-5.66,0-5.66,0Z"/>
          <polygon class="cls-2" points="156.22 10.48 152.9 13.8 152.9 18.49 156.22 21.81 160.91 21.81 164.23 18.49 164.23 13.8 160.91 10.48 156.22 10.48"/>
          <rect class="cls-1" x="156.24" y="13.82" width="4.65" height="4.65"/>
          <polygon class="cls-2" points="167.54 10.48 164.23 13.8 164.23 18.49 167.54 21.81 172.24 21.81 175.55 18.49 175.55 13.8 172.24 10.48 167.54 10.48"/>
          <rect class="cls-1" x="167.57" y="13.82" width="4.65" height="4.65"/>
          <rect class="cls-1" x="129.59" y="15.46" width="2.32" height="2.32"/>
          <rect class="cls-1" x="123.93" y="15.46" width="2.32" height="2.32"/>
          <polygon class="cls-3" points="50.64 82.59 50.64 87.26 46.14 87.26 46.14 82.59 43.76 82.59 43.76 94.47 46.14 94.47 46.14 89.33 50.64 89.33 50.64 94.47 53.02 94.47 53.02 82.59 50.64 82.59"/>
          <path class="cls-3" d="m55.73,85.48h2.35v8.99h-2.35v-8.99Zm1.19-1.45c-.41,0-.74-.12-1.01-.36-.27-.24-.4-.55-.4-.92s.13-.7.4-.93c.27-.23.61-.35,1.01-.35s.74.12,1,.35c.26.24.39.55.39.93s-.13.68-.39.92c-.26.24-.6.36-1,.36"/>
          <polygon class="cls-3" points="67.16 82.59 63.23 87.74 63.18 87.74 63.18 82.59 60.81 82.59 60.81 94.47 63.18 94.47 63.18 91.13 64.74 89.14 67.81 94.47 70.43 94.47 66.15 87.26 69.78 82.59 67.16 82.59"/>
          <g>
            <path class="cls-3" d="m74.2,88.1h1.54c.77,0,1.36-.16,1.76-.47.4-.32.6-.79.6-1.44s-.2-1.09-.6-1.34c-.4-.25-.99-.38-1.76-.38h-1.54v3.63Zm4.1,6.38l-2.44-4.5h-1.65v4.5h-2.38v-11.89h4.14c.62,0,1.21.06,1.75.18.55.12,1.02.32,1.42.59.4.28.72.65.95,1.11.23.46.35,1.03.35,1.72,0,.9-.21,1.63-.62,2.18-.41.56-.96.97-1.65,1.24l2.78,4.87h-2.65Z"/>
            <path class="cls-3" d="m91.53,94.7c-.81,0-1.57-.13-2.27-.4-.7-.27-1.3-.66-1.81-1.17-.51-.51-.91-1.15-1.2-1.91-.29-.76-.43-1.64-.43-2.63s.15-1.85.45-2.62c.3-.77.71-1.42,1.22-1.96.51-.54,1.12-.94,1.81-1.22.69-.28,1.43-.42,2.22-.42.86,0,1.59.16,2.19.47.61.31,1.1.67,1.49,1.06l-1.27,1.51c-.29-.28-.61-.51-.97-.71-.36-.19-.81-.29-1.36-.29-.49,0-.95.09-1.36.28-.41.19-.77.46-1.06.81-.29.35-.52.78-.69,1.29-.17.5-.25,1.08-.25,1.72,0,1.3.29,2.31.88,3.04.59.73,1.47,1.1,2.63,1.1.29,0,.57-.04.84-.11.27-.08.49-.19.66-.34v-2.35h-2.1v-1.94h4.22v5.36c-.41.4-.94.73-1.61,1.01-.67.28-1.41.42-2.25.42"/>
            <path class="cls-3" d="m100.32,88.1h1.54c.77,0,1.36-.16,1.76-.47.4-.32.6-.79.6-1.44s-.2-1.09-.6-1.34c-.4-.25-.99-.38-1.76-.38h-1.54v3.63Zm4.1,6.38l-2.44-4.5h-1.65v4.5h-2.38v-11.89h4.14c.62,0,1.21.06,1.75.18.55.12,1.02.32,1.42.59s.72.65.95,1.11c.23.46.35,1.03.35,1.72,0,.9-.21,1.63-.62,2.18-.41.56-.96.97-1.65,1.24l2.78,4.87h-2.65Z"/>
            <path class="cls-3" d="m113.61,92.64c.44,0,.84-.1,1.2-.29.36-.19.66-.47.92-.84.25-.36.44-.8.58-1.32.13-.51.2-1.09.2-1.72,0-1.29-.26-2.29-.78-3-.52-.72-1.22-1.08-2.11-1.08s-1.59.36-2.11,1.08c-.52.72-.78,1.72-.78,3,0,.63.07,1.21.2,1.72.14.51.33.95.58,1.32.25.36.56.64.92.84.36.19.76.29,1.2.29m0,2.05c-.79,0-1.51-.14-2.16-.43-.65-.28-1.21-.7-1.68-1.24-.47-.54-.84-1.19-1.09-1.96-.26-.77-.38-1.63-.38-2.59s.13-1.83.38-2.59c.26-.76.62-1.4,1.09-1.93.47-.52,1.03-.92,1.68-1.2.65-.27,1.37-.41,2.16-.41s1.5.14,2.15.42c.65.28,1.22.68,1.69,1.2.47.52.84,1.16,1.09,1.92.26.76.38,1.62.38,2.59s-.13,1.83-.38,2.59c-.26.77-.62,1.42-1.09,1.96-.47.54-1.03.95-1.69,1.24-.65.28-1.37.43-2.15.43"/>
            <path class="cls-3" d="m125.82,94.7c-.73,0-1.38-.1-1.94-.31-.57-.21-1.05-.54-1.45-.99-.4-.45-.71-1.03-.92-1.74-.21-.71-.31-1.55-.31-2.54v-6.54h2.38v6.75c0,.62.05,1.14.15,1.57.1.42.25.76.44,1.02.19.26.43.44.71.55.28.11.59.17.95.17s.67-.06.96-.17c.28-.11.53-.3.73-.55.2-.26.36-.6.47-1.02.11-.42.16-.94.16-1.57v-6.75h2.28v6.54c0,.98-.1,1.83-.3,2.54-.21.71-.5,1.29-.9,1.74-.4.45-.88.78-1.45.99-.57.21-1.22.31-1.94.31"/>
            <path class="cls-3" d="m133.27,82.59h2.42l3.45,6.33,1.19,2.57h.08c-.06-.62-.13-1.3-.2-2.04s-.1-1.44-.1-2.12v-4.74h2.23v11.89h-2.41l-3.44-6.36-1.21-2.55h-.08c.05.64.11,1.32.18,2.04.07.72.1,1.42.1,2.1v4.77h-2.23v-11.89Z"/>
            <path class="cls-3" d="m148.42,92.56c.56,0,1.06-.08,1.5-.23.44-.16.82-.4,1.13-.72.31-.33.55-.75.71-1.26.17-.51.25-1.14.25-1.87s-.08-1.35-.25-1.86c-.17-.51-.4-.92-.71-1.24-.31-.32-.69-.55-1.13-.69-.44-.15-.94-.22-1.5-.22h-.74v8.1h.74Zm-3.12-9.97h3.26c.91,0,1.73.12,2.45.35.72.24,1.34.6,1.85,1.09.51.49.9,1.1,1.17,1.84.27.74.41,1.61.41,2.62s-.14,1.87-.41,2.62c-.27.75-.66,1.37-1.16,1.87-.5.5-1.1.87-1.81,1.12-.71.25-1.5.38-2.38.38h-3.39v-11.89Z"/>
          </g>
        </g>
        <path class="cls-3" d="m359.28,8.16c.14.77-.15,1.54,0,2.07,0,.02.22.13.26.2.22.36-.03.96.47,1.07.4.1.84-.32,1.27-.4.58-1.08.66-2.28.87-3.68.33-2.22,1.02-4.52,1.41-6.61-.37-1.17-2.46-.9-3.28-.26-.52,2.29-.94,4.67-1.2,7.21-.06.26.29.11.2.4Zm-21.52-1.94c.66.46,1.66.77,2.07,1.4h.33c1.01,1.16,2.27,1.94,3.68,2.81,1.14.72,2.08,1.51,3.47,1.67.08-.12.18-.23.27-.33-.16-.63-.37-1.2-.74-1.6-.23-.21-.54.06-.54-.34.19.1.58.23.67.07-.57-.3-.72-.87-1.2-1.34-.56-.54-1.7-1.47-2.41-2-.98-.74-2.42-2.18-3.54-2.48-.6-.15-1.83.19-2.34.54-.8.54-.3,1.21.27,1.61Zm41.97,4.07c.8-.44,1.56-.96,2.34-1.2.76-.24,1.94-.69,1.67-1.53-1.04-.86-2.16-.37-3.01.13-1.3.76-2.57,1.06-3.28,2.14-1.43.22-2.2,1.68-3.61,2.14-.35,1.15-2,1.33-2.14,2.47,1.38-.2,2.25-.99,3.47-1.6,1.61-.81,3.02-1.69,4.55-2.54Zm45.04,4.41c-.74-.66-2.44-.25-3.14.14-1.04,4.13-1.71,8.58-2.4,13.17-.47,3.11-.46,6.32-1.07,9.42-.3,1.52-.42,3.11-.67,4.61-.26,1.54-.61,3.08-.8,4.61-.19,1.57-.01,3.25-.73,4.68-1.94-5-3.45-10.25-5.81-14.7-.34-.64-.79-1.22-1.07-1.87-.33-.78-.36-1.62-.87-2.27-.5-.18-1.14-.29-1.6-.33-.25.28-.53,0-.87.26-.56.43-.76,2.85-.94,3.94-.58,3.6-1.1,7.02-1.54,10.63-.13,1.09-.15,2.11-.13,3.01.04,1.62-.41,3.34-.6,4.88-.22,1.69-.67,3.21-.8,4.67.83.42,1.97.18,2.81-.07,2.18-5.55,2.03-13.49,3.28-19.92.99,1.64,1.69,3.51,2.34,5.35,2.04,5.74,3.94,11.54,5.75,17.38.34.11.38.5.67.66,1.11.02,2.34-.1,2.81-.66.49-.61.29-2.37.33-3.35.17-4.01.16-7.46.47-11.69.19-2.67.91-5.36,1.2-8.16.29-2.8.75-5.61.93-8.42.18-2.81.5-5.59,1.2-8.15.35-1.27.58-2.57.73-3.81.18-1.39.64-2.69.53-4.01Zm-26.13,16.18c-.2.24-.36,1.27-.46,1.81-.41,2.15-.9,3.83-1.34,5.61-.49,1.98-.76,3.98-1.13,5.82-.13.62-.12,1.34-.54,1.8-.61-6.06-1.09-11.85-2.14-17.44-.62-.45-2.19-1.15-2.94-.27-.23,1.08.34,2.75.13,3.74-.19.93-.95,2.03-1.47,3.08-1.05,2.1-2.28,3.77-3.41,5.68-.42.71-1.08,2.73-1.67,2.94-.73.26-1.91-.42-2.87-.07-.7-1.08-1.82-1.75-2.94-2.4,1.8-1.21,4.19-2.38,6.08-4.14,1.84-1.72,3.68-3.5,4.27-6.02.55-2.3-.25-4.29-1.53-5.28-2.84-2.18-7.68-1.81-11.36-.46-2.44.88-4.13,2.06-5.35,3.94-.4.62-.61,1.43-1.27,1.87.33-2.52.37-5.34,1.27-7.28,1.96-.35,4.26-.26,6.88-.54,2.26-.23,5.7-.2,7.62-1.06.3-.14.71-.4.8-.67.62-1.9-3.4-2.69-5.01-3.07-2.4-.57-4.96-1.07-7.09-1.4-2.47-.39-5.55-.55-8.09-.67-3.12-.15-7.01,0-10.29.13-2.03.09-4.11.24-6.08.47-1.92.23-3.81.7-5.08,1.67.4.49,1.18.89,2,.73.35.29.81.77,1.34.66.3.56.98.72,1.54,1,1.74.89,3.91,1.3,6.15,1.6,3,.42,6.3.78,9.09.81,1.16,0,1.87-.06,2.94.2-1.21,2.97-1.32,6.54-1.74,9.96-1.03,8.47-2.42,17.34-4.01,24.86-.34,1.6-.4,3.27-1,4.75-1.97.24-3.3-.09-5.68.2.66-1.13,1.59-2.02,2.34-3.08.77-1.09,1.35-2.28,2-3.47,1.28-2.33,2.54-4.83,3.01-7.88.77-2.85,1.42-5.95,2-9.49.54-3.31.26-7.61-1.54-9.55-.28-.3-1-.84-1.4-.87-.33-.02-.75.23-1.13.27-.36.04-.78-.02-1.07,0-3.59.21-5.38,2.87-7.15,5.01-.86,1.05-1.71,2.16-2.47,3.34-1.85,2.85-3.97,6.1-4.75,9.62.18.18.37.36.61.47.18.05.45-.35.73-.2-.06-.55.52-.61.8-.94.38-.43.55-1.23.87-1.87.73-1.43,1.52-2.67,2.27-3.88.43-.69.82-1.4,1.47-1.87.24-.76.78-1.12,1.2-1.67.8-1.04,1.59-2.07,2.4-3.07.52-.63,1.21-1.2,1.81-1.81.62-.63,1.27-1.31,2.14-1.54.92.29,1.11,1.22,1.4,2.07.41,1.21.63,2.49.67,3.81.01.35.15.78.13,1,0,.3-.23.71-.26,1.07-.3,2.81-.77,5.57-1.4,7.95-.73,2.76-1.27,5.68-2.4,8.22-1.69,3.77-3.64,7.08-6.61,9.49-1.83,1.46-4.52,3.49-7.02,1.81-1.96-1.32-2.89-3.95-3.01-7.03-.12-3.12.87-6.18,1.07-8.82.72-1.85,1.15-3.75,1.87-5.61,1.38-3.56,3.02-7.11,4.95-10.16.96-1.53,2.06-3.13,3.28-4.28.28-.26,1.15-.68,1.07-1.14-.11-.64-1.87-.56-2.67-.27-.54.19-1.19.64-1.6,1-1.15.98-2.21,2.5-3.14,3.94-.98,1.52-1.67,3.23-2.61,4.41.33-3.81,1.03-9.34-1.47-11.23-.66.21-.64-.34-1.06-.47-.58-.17-1.77.04-2.48.2-1.06.24-2.01.77-2.61,1.27-2.46,2.08-4.74,5.68-6.35,8.22-.79,1.78-2.14,4.37-2.81,6.55-.16.5-.35.97-.26,1.34.2.98,1.31.71,1.8.27.75-.67,1.13-2.04,1.47-3.07,1.43-2.23,2.61-4.61,4.14-6.75.74-1.03,1.57-2.1,2.41-3.07.83-.97,1.67-2.04,2.81-2.67.91.87.96,2.6,1.06,4.28-.14.34.34.06.27.33-.47.73-.26,2.03-.33,3.21-.07,1.16-.44,2.17-.2,3.07-.38.45-.41,1.07-.54,1.61-.95,4.09-2.19,7.99-3.88,11.36-.94,1.88-2.02,3.72-3.2,5.48-1.49,2.22-3.21,4.36-5.49,5.68-1.4.81-2.55.72-3.34-.54-2.09-3.35-1.06-8.58-.27-12.69.56-2.88,1.22-5.55,2.14-8.02.94-2.53,1.9-4.98,3.01-7.15.85-1.69,1.98-3.18,3-4.61.34-.47.92-.78,1.01-1.4-.47-.52-1.55-.45-2.34-.34-1.65.24-2.93,2.57-3.74,3.75-1.85,2.68-2.88,5.65-4.08,8.75-.72,1.85-1.54,3.68-1.67,5.54-.58.86-.65,2.18-.87,3.48-.16.99-.44,2.02-.53,2.94-.12,1.22-.04,2.43-.4,3.47-1.31.54-2.29,1.45-3.54,2.07-.24.12-.56.13-.8.27-.5.28-1.03.8-1.54,1.2-1.5,1.2-3.07,2.69-4.61,3.61-.43.26-1,.62-1.47.61-1.31-.05-2.03-2.25-2.2-3.82-.19-1.75.12-3.57.33-5.14.51-3.72,1.02-7.17,1.94-10.16.91-2.94,2.33-5.74,3.54-8.49.94-2.12,1.89-4.21,2.88-6.15.33-.65.85-1.24.87-1.94.42-.29.63-.84.86-1.27.26-.47.5-.93.74-1.4,1.2-2.31,2.75-4.52,4.41-6.28.33-.35.85-.6.94-1.14.96.81,1.17,2.81,1,4.55-.54,5.65-3.62,10.4-5.08,15.04.44,1.32,2.92.96,3.75.07.31-.33.6-1.24.93-1.94.69-1.45,1.1-2.78,1.67-4.14.26-.63.57-1.25.87-1.94,1.31-3.05,2.17-6.31,1.87-9.62-.05-.55-.13-.74-.47-1,.32-.08.17-.43.13-.6-.18-.82-1.2-2.11-2.01-2.33-.84-.24-2.53.06-3.28.13-.39.04-.81-.07-1.07,0-1.14.3-1.8,1.42-2.41,1.81-.61.79-1.51,1.3-1.86,2.34-.66.19-.66.77-1,1.07-.09.08-.2.18-.27.27-1.08,1.39-1.98,3.23-2.88,4.95-1.82,3.51-3.4,6.98-5.01,10.76-.81,1.91-2,4.11-2.27,6.35-.37.69-.65,1.4-.94,2.2-.73,2.06-.97,4.74-1.4,7.35-.38,2.32-.84,4.77-.67,6.96.25,3.14,1.83,6.72,5.41,5.88,1.24-.29,2.81-.97,3.81-1.53.34-.19.58-.56.93-.8.38-.26.78-.47,1.14-.73,1.43-1.07,2.84-2.21,4.14-3.35.7-.61,1.36-1.3,2.2-1.6.68,3.76,1.63,7.79,5.75,7.68.41-.23.99-.3,1.34-.59,5.61-1.27,8.8-6.14,11.63-10.5.38-.58.64-1.41,1.34-1.6-.05,2.8-.61,5.91-.14,8.62.12.7.58,2,.87,2.54.16.3.54.45.73.74.1.16.1.43.2.6.77,1.28,2.03,1.93,3.41,2.54.54-.12,1.08.09,1.6.07,1.48-.07,2.48-.74,3.61-1.14.28-.1.55-.02.81-.13.5-.21.8-.69,1.2-1,.34-.27.72-.43.93-.73.3-.24.14.35.4.12.37-.19.17-.58.6-.66,1.02,2.46,1.54,5,3.88,6.21.71.37,1.94.65,2.94.66,1.24.03,2.84-.71,4.08-1.53.43-1.97.48-4.34,1.21-6.02,3-.43,5.14-.94,8.15-1.47.05-.32.47-.28.67-.46-1.36-.4-2.38-.43-3.75-.41-1.66.04-3.26.34-4.74.07.1-1.45,1.01-3.21.54-4.21.78-1.58.98-3.44,1.27-5.28.3-1.84.67-3.74,1-5.61.67-3.8,1.08-7.68,1.81-11.37.78,1.24,2.49.32,3.21-.4.23-3.64,1.09-6.81,3.54-8.55,2.79-1.99,9.89-2.92,9.89,2.2,0,.99-.49,2.01-.93,2.87-1.06,2.03-2.35,3.19-4.01,4.55-.93.76-1.83,1.63-2.88,2,.68-2.69.8-5.54,1.47-7.95.23-.83.68-1.6.61-2.47-.79-.74-2.82-.9-3.48-.07-.41.51-.73,2.45-.94,3.48-.77,3.76-1.5,7.72-2.27,10.89-.6,2.45-1,5.01-1.54,7.35-.26,1.12-.57,2.35-.8,3.61-.34,1.87-.99,3.72-.33,5.35.61.16.78-.14,1.27.13.51-.41.55-.15,1.41-.26,1.21-5.05,2.16-10.27,3.54-15.31,1.81.85,2.75,4.06,3.21,6.62.16.91.29,2.13.13,3.01-.19,1.08-1.42,1.69-1.2,2.8.37.4.32-.33.67-.13.44.6.08,1.34,0,2-.26,2.16-.73,4.35-1.27,6.55-.26,1.04-.39,2.17-.67,3.21-.28,1.07-.66,2.13-.8,3.14-.09.61.05,1.32-.4,1.81-4.66-.11-10.91-.07-15.44.07-2.51.08-5.04.32-7.55.4-2.9.09-5.96.23-8.62.47-1.71.16-3.74-.3-5.08.67.24.74.74,1.05,1.47,1.14,1.31.15,2.85-.1,4.21-.2,1.38-.1,2.74-.19,4.08-.26,7.8-.43,17.74-1.33,26.86-.73.33.61.39.79,1.07.66.47-.09.87-.21,1.14-.47,1.91-.29,4.83.08,6.95.33.5.06,1.73.05,1.74.4,0,.08-1.53.72-1.94.87-.93.36-1.46.51-2.14.74-5.66,1.86-10.3,3.2-16.24,4.34-2.18.42-4.52.87-6.28,1.07-1.57.17-2.97.05-5.01.33-.37.05-2.06.35-2.07.8-.01.3.71.71.87.73.2.04.51-.14.8-.13.31,0,.5.15.74.13,1.13-.05,2.26-.3,3.47-.33,1.29-.03,2.63-.02,4.01-.14,9.77-.77,20.13-.6,29.67-.8.78-.02,1.57.23,2.21-.07-.58-.45-1.97-.58-2.94-.66-4.06-.35-8.4-.4-12.83-.4-2.07,0-4.21.12-5.88-.2,1.31-.63,2.8-.85,4.27-1.2,1.41-.35,2.81-.87,4.21-1.27,2.18-.63,4.36-1.2,6.28-1.94.7-.27,1.41-.42,2.07-.67.65-.25,1.6-.73,1.8-1.34-1.47-1.25-3.75-1.47-5.81-1.68-2.12-.21-4.6-.31-6.75-.66,1.37-5.48,3.18-11.02,3.94-17.11.12-.91,0-1.97.21-2.88.1-.51.63-1.05.93-1.67.89-1.78,1.5-3.93,2.41-5.48,1.76-.43,2.99-.35,5.01-.4.52,5.23.63,11.09.87,16.31.04.78,0,1.71.14,2.4.05.31.28.47.4.8.13.39.03.79.27,1.14.56.19.96.19,1.67.26.21-.28.41-.57.53-.93.22,0,.05.4.34.33.2-1.32.17-2.51.13-3.87-.02-1.03-.28-2.42-.13-3.47.06-.42.34-.75.46-1.14.65-2.04,1.06-4.21,1.61-6.34.56-2.17,1.06-4.35,1.47-6.55.82-4.37,1.97-8.69,2.61-13.1-.77-.53-2.53-1.08-3.21-.27Zm-40.1,39.3c-2.08-.44-3.07-2.31-3.27-4.41,1.11-.2,2.82-.27,4.2-.27-.03,1.57-.58,3.21-.93,4.68Zm-1.13-49.12c-2.96-.34-6.15-.83-8.22-2.47,3.56-.73,7.57-.69,11.42-.87,4.87-.23,10.37.56,14.91,1.34,1.69.28,3.34.41,4.75.8.72.2,1.46.51,2.01,1.07-1.56.62-3.06.49-4.95.6-2.09.12-4.17.37-6.35.4-4.46.06-9.23-.37-13.56-.87Zm25.06,26.06c-.13-.47-.45-.76-.47-1.34.25-.08.53-.13.87-.13,0,.12.05.18.13.2-.16.44-.28.92-.53,1.27Zm4.94-3.61c.79-2.06,2.08-3.62,3.07-5.47h.2c.45,1.84.38,3.46.67,5.54-1.14.08-2.9.19-3.94-.07Zm-88.35-23.46c-.09-.31-1.1-.73-1.67-.73-.4,0-.92.18-1.13.4-.45.47-.88,1.33-1.34,2.01-1.34,1.97-2.82,4.26-4.01,6.08-.07.27.2.2.13.47-.49,1.31-2.21,3.13-1.47,4.48.87.02,1.54-.16,1.74-.81.14-.14.28.11.53.07,1.86-2.86,3.62-5.91,5.49-8.89.26-.42,1.94-2.37,1.73-3.08Zm26.29,34.86c.87.02,1.54-.16,1.74-.81.15-.13.28.11.54.07,1.86-2.86,3.62-5.91,5.48-8.89.26-.42,1.94-2.36,1.73-3.07-.09-.31-1.1-.74-1.67-.74-.4,0-.91.18-1.13.4-.45.47-.88,1.33-1.34,2.01-1.33,1.97-2.82,4.26-4.01,6.08-.06.26.2.2.14.47-.49,1.32-2.21,3.13-1.47,4.48Zm-21.2-30.44c.3-.49,1.46-2.04,1.4-2.61-.05-.5-1-.86-1.54-.93-1.95-.25-2.17,1.44-2.87,2.54-1.26,1.97-2.84,4.14-3.88,5.95,0,1.22-.92,2.11-1.27,3.21.17-.04.24.02.2.2-.16.47-.38.66-.27,1.27.56.27.87-.22,1.61-.27.16-.04-.04-.43.2-.4.27.05.38-.06.6-.07.98-1.33,1.71-2.61,2.61-4.08,1.06-1.72,2.13-3.08,3.21-4.81Zm42.39,31.78c.56.27.87-.22,1.61-.27.16-.04-.03-.43.2-.4.27.04.38-.06.6-.07.98-1.33,1.7-2.61,2.6-4.07,1.06-1.72,2.13-3.09,3.21-4.81.3-.49,1.47-2.05,1.41-2.61-.05-.5-1-.86-1.54-.94-1.96-.26-2.17,1.44-2.87,2.54-1.26,1.98-2.83,4.14-3.88,5.95-.01,1.21-.92,2.12-1.27,3.21.17-.04.24.03.2.2-.16.46-.38.66-.27,1.27Zm54.32-26.23c.27.03.14-.35.4-.33,1.5,1.24,1.08-2.37,1.13-3.41.09-1.43.42-2.69.54-3.67-.79-.67-2.52-1.11-3.2-.34-.21.24-.44,1.16-.6,2.07-.31,1.69-.38,3.62,0,5.01.19.69,1.35.54,1.74.67Zm28-4.14c-.18-.84-2.01-1.29-2.54-.47-.88,2.62-1.7,5.8-2.14,8.69-.11.71-.37,1.57-.33,2.2,0,.15.26.75.33,1.27.09.7.05.78.4,1.07.34.3.51.64.87.67.44.03.39-.36.73-.34.42-1.4.55-3.01.87-4.74.09-.49.4-1,.47-1.54.19-1.52.24-2.49.6-3.94.22-.89.85-2.33.74-2.88Zm2.6-.54c-.32,1.05-.69,2.12-1.07,3.28-.41,1.25-.98,2.57-1.01,3.81-.02,1.35-1.09,2.62-.26,3.81.29-.16.22-.07.47.06,1.56-.86,1.56-2.85,2.33-4.74.12-.29.32-.47.4-.73.54-1.64,1.06-3.4,1.13-5.01-.63-.15-1.23-.89-2-.47Z"/>
      </g>
      <text class="cls-4" transform="translate(55.01 151.52)"><tspan x="0" y="0" xml:space="preserve">2024.3.15 (금)  –  2024.5.12 (일)</tspan><tspan x="-48.95" y="32" xml:space="preserve">2024.MAR.15 (Fri)  –  2024.MAY.12 (Sun)</tspan></text>
    </g>
  </g>
</svg>