<?xml version="1.0" encoding="utf-8"?>
<!-- Generator: Adobe Illustrator 26.5.0, SVG Export Plug-In . SVG Version: 6.00 Build 0)  -->
<svg version="1.1" id="Layer_1" xmlns="http://www.w3.org/2000/svg" xmlns:xlink="http://www.w3.org/1999/xlink" x="0px" y="0px"
	 viewBox="0 0 71 71" style="enable-background:new 0 0 71 71;" xml:space="preserve">
<style type="text/css">
	.st0{fill:#6A4595;}
	.st1{fill:#D2D1D0;}
</style>
<polygon class="st0" points="20.6,0 -0.2,20.8 -0.2,50.2 20.6,71 50.01,71 70.8,50.2 70.8,20.8 50.01,0 "/>
<g>
	<path class="st1" d="M15.07,30.01l2.07,0l0.01,4.08l3.92-0.01L21.07,30l2.06,0l0.03,10.36l-2.06,0l-0.01-4.48l-3.92,0.01l0.01,4.48
		l-2.07,0L15.07,30.01z"/>
	<path class="st1" d="M25.17,35.13c-0.01-3.38,1.88-5.34,4.62-5.35c2.75-0.01,4.64,1.96,4.65,5.33c0.01,3.36-1.88,5.43-4.62,5.43
		C27.07,40.54,25.17,38.49,25.17,35.13z M32.32,35.11c0-2.26-0.95-3.56-2.53-3.55s-2.52,1.31-2.51,3.56
		c0.01,2.2,0.99,3.63,2.53,3.62C31.35,38.74,32.33,37.31,32.32,35.11z"/>
	<path class="st1" d="M36.45,29.96l2.3-0.01l1.78,4.84c0.22,0.66,0.42,1.33,0.63,2h0.07c0.22-0.67,0.4-1.35,0.63-2l1.71-4.85
		l2.3-0.01l0.03,10.36l-1.89,0l-0.01-4.33c0-0.97,0.13-2.44,0.24-3.41h-0.06l-0.83,2.44l-1.59,4.36l-1.19,0l-1.62-4.35l-0.83-2.44
		l-0.06,0c0.12,0.97,0.27,2.44,0.28,3.4l0.01,4.33l-1.86,0L36.45,29.96z"/>
	<path class="st1" d="M48.41,29.93l6.36-0.02l0,1.72l-4.29,0.01l0.01,2.4l3.64-0.01l0,1.74l-3.64,0.01l0.01,2.77l4.44-0.01l0,1.74
		l-6.51,0.02L48.41,29.93z"/>
</g>
</svg>
