<svg width="235" height="28" viewBox="0 0 235 28" fill="none" xmlns="http://www.w3.org/2000/svg">
<path d="M26.4021 1.29C26.6121 2.79 26.6121 25.23 26.4021 26.7C25.5321 26.91 22.5921 26.91 21.4221 26.7C21.3321 25.95 21.2721 19.5 21.3021 13.29C19.4721 13.32 17.0421 13.29 16.2621 13.2C16.1121 12.54 16.1121 9.27 16.2621 8.61C17.0421 8.52 19.4721 8.49 21.3021 8.52C21.3321 4.77 21.3621 1.8 21.4221 1.29C22.4421 1.11 25.3821 1.11 26.4021 1.29ZM6.66207 2.01C7.62207 1.86 10.5321 1.86 11.4921 2.01C12.8721 6.15 17.8221 22.77 18.1221 24.12C17.3121 24.6 14.4921 25.53 13.2921 25.65C12.9321 24.87 10.9221 17.52 9.15207 10.8C7.44207 17.7 5.43207 25.08 5.07207 25.89C3.96207 25.8 1.11207 24.93 0.24207 24.42C0.42207 23.1 5.28207 6.21 6.66207 2.01ZM36.4183 10.17C31.2283 10.17 28.7383 8.34 28.7383 5.4C28.7383 2.49 31.1983 0.629999 36.4183 0.629999C41.6083 0.629999 44.0983 2.46 44.0983 5.4C44.0983 8.31 41.6383 10.17 36.4183 10.17ZM36.4183 4.38C34.4683 4.38 33.9883 4.86 33.9883 5.4C33.9883 6.03 34.6783 6.42 36.4183 6.42C38.3683 6.42 38.8483 5.94 38.8483 5.4C38.8483 4.77 38.1583 4.38 36.4183 4.38ZM44.8183 14.67C44.1283 14.7 41.9083 14.73 39.2983 14.73V15.6C41.4883 15.6 43.3183 15.63 43.9783 15.66C44.2183 17.25 44.1883 21.75 43.9783 22.77C41.3383 22.83 36.6883 22.77 34.4083 22.77V23.64C36.5383 23.61 41.6383 23.61 44.5783 23.64C44.7583 24.57 44.7583 26.49 44.5783 27.45C41.9983 27.6 31.8583 27.6 29.2783 27.45C29.0983 25.83 29.0983 21.6 29.2783 19.92C32.2483 19.89 36.2383 19.92 38.9683 19.92V19.11C36.2083 19.14 32.1583 19.14 29.1583 19.11C29.0083 17.91 29.0083 16.86 29.1583 15.66C29.8483 15.63 31.7683 15.6 34.0483 15.6V14.73C31.3783 14.73 29.1283 14.7 28.5283 14.67C28.3783 13.38 28.3783 11.94 28.5283 10.77C30.0583 10.68 42.9583 10.68 44.8183 10.77C44.9383 11.97 44.9683 13.44 44.8183 14.67ZM53.4199 12.15C52.7899 11.19 52.0099 9.24 51.7699 7.89C52.8799 7.47 55.5499 6.69 57.8899 6.03C55.1299 6.03 52.8799 6.03 52.1899 6C52.0399 4.74 52.0399 2.52 52.1899 1.41C54.2599 1.29 70.3699 1.29 72.2599 1.41C72.4099 2.61 72.4099 4.83 72.2599 6C71.6299 6.03 69.3499 6.03 66.5599 6.03C68.8999 6.69 71.5699 7.47 72.6799 7.89C72.4399 9.24 71.6599 11.19 71.0299 12.15C68.8399 11.55 64.8499 10.32 62.2399 9.33C59.5999 10.32 55.6099 11.55 53.4199 12.15ZM73.0699 17.04C72.2899 17.07 68.7199 17.07 64.6699 17.07V17.91C70.6699 18.27 72.8599 20.04 72.8599 22.83C72.8599 25.98 70.0699 27.81 62.2099 27.81C54.3499 27.81 51.5599 25.98 51.5599 22.83C51.5599 20.07 53.6899 18.33 59.4799 17.94V17.07C55.4899 17.07 52.0099 17.07 51.3799 17.04C51.2299 15.66 51.2299 14.16 51.3799 12.72C52.9099 12.63 71.2099 12.63 73.0699 12.72C73.1899 14.19 73.2199 15.72 73.0699 17.04ZM67.6999 22.83C67.6999 22.2 66.8599 21.81 62.2099 21.81C57.5599 21.81 56.7199 22.2 56.7199 22.83C56.7199 23.46 57.5599 23.85 62.2099 23.85C66.8599 23.85 67.6999 23.46 67.6999 22.83ZM83.1937 6.48C82.1737 6.54 76.8337 6.51 75.3937 6.45C75.2737 4.95 75.2737 3.36 75.3937 1.86C77.3137 1.77 86.4337 1.77 88.2037 1.86C88.3237 3.33 88.3237 11.19 88.2037 12.69C87.3037 12.87 84.3637 12.87 83.1937 12.69C83.1337 10.86 83.1637 8.13 83.1937 6.48ZM88.9537 14.46C89.1637 15.66 89.1937 18 88.9537 19.08C88.4137 19.11 86.5837 19.14 84.3637 19.17C84.4237 21.9 84.3937 25.8 84.3037 26.85C83.4037 27.03 80.4637 27.03 79.2937 26.85C79.2037 25.8 79.1737 21.9 79.2337 19.17C76.9237 19.14 75.0337 19.11 74.5837 19.08C74.3737 17.91 74.3737 15.6 74.5837 14.46C75.8137 14.34 87.4537 14.37 88.9537 14.46ZM103.388 9.3C102.098 12.06 100.178 15.93 99.5482 16.71C98.5582 16.44 96.0682 15.06 95.4082 14.34C95.7682 13.44 97.4482 10.14 98.7682 7.65C97.3582 7.65 96.2782 7.62 95.8882 7.59C95.7382 6.96 95.7382 3.84 95.8882 3.18C96.5182 3.12 98.4082 3.06 100.628 3.06C100.628 2.1 100.658 1.08 100.718 0.42C101.738 0.27 104.918 0.27 105.968 0.42C106.028 1.08 106.058 2.1 106.058 3.06C108.218 3.06 110.018 3.12 110.558 3.18C110.708 3.78 110.708 6.84 110.558 7.59C110.138 7.62 109.238 7.62 108.038 7.65C109.238 9.9 110.648 12.66 110.978 13.53C110.288 14.22 107.798 15.57 106.808 15.84C106.208 15.09 104.588 11.82 103.388 9.3ZM114.308 11.91C113.288 11.91 112.268 11.88 111.368 11.85C111.218 10.56 111.248 8.43 111.368 7.38C112.238 7.32 113.258 7.29 114.278 7.32C114.308 4.5 114.338 1.92 114.398 1.29C115.418 1.11 118.328 1.11 119.348 1.29C119.558 2.79 119.558 14.7 119.348 16.2C118.478 16.32 115.568 16.32 114.398 16.2C114.338 15.69 114.308 14.01 114.308 11.91ZM108.128 16.65C116.828 16.65 119.798 18.57 119.798 22.08C119.798 25.59 116.828 27.51 108.128 27.51C99.4282 27.51 96.4582 25.59 96.4582 22.08C96.4582 18.57 99.4282 16.65 108.128 16.65ZM108.128 23.31C113.678 23.31 114.578 22.86 114.578 22.08C114.578 21.3 113.678 20.85 108.128 20.85C102.578 20.85 101.678 21.3 101.678 22.08C101.678 22.86 102.578 23.31 108.128 23.31ZM145.247 1.29C145.427 2.79 145.427 25.23 145.247 26.7C144.347 26.91 141.497 26.91 140.327 26.7C140.237 25.23 140.237 2.79 140.327 1.29C141.347 1.11 144.227 1.11 145.247 1.29ZM133.757 1.41C134.777 1.23 137.567 1.23 138.587 1.41C138.707 2.91 138.707 24.81 138.587 26.31C137.687 26.49 134.897 26.49 133.757 26.31C133.727 25.86 133.697 23.55 133.667 20.52H131.117C131.087 23.28 131.057 25.35 131.027 25.71C129.827 25.8 127.247 25.8 126.017 25.71C125.957 23.7 125.957 8.88 126.017 6.87C124.787 6.93 122.657 6.93 121.307 6.87C121.187 6 121.187 2.91 121.307 2.04C122.807 1.89 129.527 1.89 131.027 2.04C131.057 2.37 131.087 4.2 131.117 6.72C131.897 6.72 132.797 6.69 133.697 6.72C133.697 3.93 133.727 1.83 133.757 1.41ZM131.147 15.87C131.927 15.87 132.797 15.84 133.667 15.87V11.37C132.797 11.37 131.927 11.37 131.147 11.37V15.87ZM151.496 17.58C150.476 17.37 147.896 16.17 147.206 15.51C147.506 14.49 149.306 10.47 150.566 7.74C149.126 7.74 148.016 7.71 147.626 7.68C147.476 7.05 147.476 3.93 147.626 3.27C148.256 3.21 150.296 3.15 152.666 3.15C152.666 2.19 152.696 1.17 152.756 0.509998C153.776 0.359999 156.956 0.359999 158.006 0.509998C158.066 1.17 158.096 2.19 158.096 3.15C160.406 3.15 162.356 3.21 162.896 3.27C163.046 3.87 163.046 6.93 162.896 7.68C162.446 7.71 161.426 7.71 160.106 7.74C161.336 10.47 163.166 14.49 163.466 15.51C162.776 16.17 160.196 17.37 159.176 17.58C158.516 16.68 156.506 11.85 155.336 8.91C154.166 11.85 152.156 16.68 151.496 17.58ZM166.916 11.88C165.776 11.88 164.606 11.85 163.706 11.82C163.556 10.53 163.586 8.4 163.706 7.35C164.606 7.29 165.806 7.26 166.916 7.29C166.946 4.32 166.976 1.83 167.006 1.29C168.026 1.11 170.966 1.11 171.986 1.29C172.196 2.79 172.196 18.57 171.986 20.07C171.116 20.19 168.176 20.19 167.006 20.07C166.946 19.41 166.916 15.78 166.916 11.88ZM172.286 21.96C172.466 22.98 172.466 25.68 172.286 26.67C170.246 26.79 150.866 26.79 148.706 26.67C148.586 24.63 148.556 20.4 148.706 18.6C149.726 18.42 152.756 18.42 153.806 18.6C153.836 19.59 153.866 21.15 153.806 21.96C155.186 21.9 170.966 21.9 172.286 21.96ZM191.204 21.96C191.414 23.16 191.444 25.56 191.204 26.64C189.704 26.76 175.364 26.76 174.134 26.64C173.924 25.47 173.924 23.1 174.134 21.96C174.614 21.9 177.104 21.87 180.044 21.87V18.75C177.614 18.75 175.544 18.72 174.794 18.66C174.644 17.25 174.644 9.12 174.794 8.01C176.174 7.95 184.124 7.95 185.294 8.01V6.36C184.184 6.39 176.054 6.39 174.644 6.36C174.464 5.28 174.464 2.76 174.644 1.71C175.934 1.56 189.014 1.56 190.304 1.71C190.454 3.15 190.454 10.92 190.304 12.39C189.014 12.42 181.724 12.42 179.984 12.39V14.16C181.304 14.1 189.464 14.1 190.784 14.16C190.934 15.03 190.964 17.67 190.784 18.66C190.004 18.72 187.814 18.75 185.264 18.78V21.87C188.144 21.87 190.634 21.9 191.204 21.96ZM215.354 17.67C215.444 18.72 215.414 20.94 215.354 22.17C214.994 22.17 213.884 22.17 212.354 22.2C212.324 24.24 212.324 25.68 212.294 26.04C211.454 26.16 208.754 26.16 207.584 26.04C207.554 25.47 207.554 24.03 207.554 22.2C203.204 22.2 198.554 22.2 197.774 22.17C197.684 20.85 197.684 19.41 197.774 17.67C198.734 15.48 204.854 3.78 205.604 2.46C206.624 2.34 210.164 2.34 212.294 2.46C212.384 3.3 212.384 11.22 212.384 17.64C213.734 17.64 214.844 17.67 215.354 17.67ZM202.964 17.67C203.774 17.67 205.574 17.64 207.554 17.64C207.584 13.65 207.614 9.48 207.644 8.16C206.984 9.87 203.864 15.84 202.964 17.67ZM234.104 14.25C234.104 22.95 230.504 26.43 225.374 26.43C220.244 26.43 216.644 22.95 216.644 14.25C216.644 5.55 220.244 2.07 225.374 2.07C230.504 2.07 234.104 5.55 234.104 14.25ZM229.004 14.25C229.004 9.3 227.504 6.99 225.374 6.99C223.244 6.99 221.744 9.3 221.744 14.25C221.744 19.2 223.244 21.51 225.374 21.51C227.504 21.51 229.004 19.2 229.004 14.25Z" fill="white"/>
</svg>
