<svg width="212" height="28" viewBox="0 0 212 28" fill="none" xmlns="http://www.w3.org/2000/svg">
<path d="M20.7059 19.92C20.5859 18.45 20.5859 2.79 20.7059 1.29C21.7259 1.11 24.6659 1.11 25.6859 1.29C25.8959 2.79 25.8959 18.42 25.6859 19.92C24.8159 20.04 21.8759 20.04 20.7059 19.92ZM19.1159 9.12C19.1159 13.98 15.6659 16.98 9.96586 16.98C4.26586 16.98 0.815859 13.98 0.815859 9.12C0.815859 4.26 4.26586 1.26 9.96586 1.26C15.6659 1.26 19.1159 4.26 19.1159 9.12ZM14.1959 9.12C14.1959 7.02 12.7859 5.55 9.96586 5.55C7.14586 5.55 5.73586 7.02 5.73586 9.12C5.73586 11.22 7.14586 12.69 9.96586 12.69C12.7859 12.69 14.1959 11.22 14.1959 9.12ZM2.10586 26.67C1.98586 24.63 1.95586 19.56 2.10586 17.76C3.21586 17.58 6.15586 17.58 7.20586 17.76C7.23586 18.75 7.26586 21.15 7.20586 21.96C8.58586 21.9 24.6659 21.9 25.9859 21.96C26.1659 22.98 26.1659 25.68 25.9859 26.67C23.9459 26.79 4.26586 26.79 2.10586 26.67ZM31.9662 17.58C30.9462 17.37 28.3662 16.17 27.6762 15.51C27.9762 14.49 29.7762 10.47 31.0362 7.74C29.5962 7.74 28.4862 7.71 28.0962 7.68C27.9462 7.05 27.9462 3.93 28.0962 3.27C28.7262 3.21 30.7662 3.15 33.1362 3.15C33.1362 2.19 33.1662 1.17 33.2262 0.509998C34.2462 0.359999 37.4262 0.359999 38.4762 0.509998C38.5362 1.17 38.5662 2.19 38.5662 3.15C40.8762 3.15 42.8262 3.21 43.3662 3.27C43.5162 3.87 43.5162 6.93 43.3662 7.68C42.9162 7.71 41.8962 7.71 40.5762 7.74C41.8062 10.47 43.6362 14.49 43.9362 15.51C43.2462 16.17 40.6662 17.37 39.6462 17.58C38.9862 16.68 36.9762 11.85 35.8062 8.91C34.6362 11.85 32.6262 16.68 31.9662 17.58ZM47.3862 11.88C46.2462 11.88 45.0762 11.85 44.1762 11.82C44.0262 10.53 44.0562 8.4 44.1762 7.35C45.0762 7.29 46.2762 7.26 47.3862 7.29C47.4162 4.32 47.4462 1.83 47.4762 1.29C48.4962 1.11 51.4362 1.11 52.4562 1.29C52.6662 2.79 52.6662 18.57 52.4562 20.07C51.5862 20.19 48.6462 20.19 47.4762 20.07C47.4162 19.41 47.3862 15.78 47.3862 11.88ZM52.7562 21.96C52.9362 22.98 52.9362 25.68 52.7562 26.67C50.7162 26.79 31.3362 26.79 29.1762 26.67C29.0562 24.63 29.0262 20.4 29.1762 18.6C30.1962 18.42 33.2262 18.42 34.2762 18.6C34.3062 19.59 34.3362 21.15 34.2762 21.96C35.6562 21.9 51.4362 21.9 52.7562 21.96ZM61.7119 12.15C61.0819 11.19 60.3019 9.24 60.0619 7.89C61.1719 7.47 63.8419 6.69 66.1819 6.03C63.4219 6.03 61.1719 6.03 60.4819 6C60.3319 4.74 60.3319 2.52 60.4819 1.41C62.5519 1.29 78.6619 1.29 80.5519 1.41C80.7019 2.61 80.7019 4.83 80.5519 6C79.9219 6.03 77.6419 6.03 74.8519 6.03C77.1919 6.69 79.8619 7.47 80.9719 7.89C80.7319 9.24 79.9519 11.19 79.3219 12.15C77.1319 11.55 73.1419 10.32 70.5319 9.33C67.8919 10.32 63.9019 11.55 61.7119 12.15ZM81.3619 17.04C80.5819 17.07 77.0119 17.07 72.9619 17.07V17.91C78.9619 18.27 81.1519 20.04 81.1519 22.83C81.1519 25.98 78.3619 27.81 70.5019 27.81C62.6419 27.81 59.8519 25.98 59.8519 22.83C59.8519 20.07 61.9819 18.33 67.7719 17.94V17.07C63.7819 17.07 60.3019 17.07 59.6719 17.04C59.5219 15.66 59.5219 14.16 59.6719 12.72C61.2019 12.63 79.5019 12.63 81.3619 12.72C81.4819 14.19 81.5119 15.72 81.3619 17.04ZM75.9919 22.83C75.9919 22.2 75.1519 21.81 70.5019 21.81C65.8519 21.81 65.0119 22.2 65.0119 22.83C65.0119 23.46 65.8519 23.85 70.5019 23.85C75.1519 23.85 75.9919 23.46 75.9919 22.83ZM91.4857 6.48C90.4657 6.54 85.1257 6.51 83.6857 6.45C83.5657 4.95 83.5657 3.36 83.6857 1.86C85.6057 1.77 94.7257 1.77 96.4957 1.86C96.6157 3.33 96.6157 11.19 96.4957 12.69C95.5957 12.87 92.6557 12.87 91.4857 12.69C91.4257 10.86 91.4557 8.13 91.4857 6.48ZM97.2457 14.46C97.4557 15.66 97.4857 18 97.2457 19.08C96.7057 19.11 94.8757 19.14 92.6557 19.17C92.7157 21.9 92.6857 25.8 92.5957 26.85C91.6957 27.03 88.7557 27.03 87.5857 26.85C87.4957 25.8 87.4657 21.9 87.5257 19.17C85.2157 19.14 83.3257 19.11 82.8757 19.08C82.6657 17.91 82.6657 15.6 82.8757 14.46C84.1057 14.34 95.7457 14.37 97.2457 14.46ZM116.75 6.27C115.4 6.36 106.22 6.36 104.87 6.27C104.75 5.55 104.75 2.58 104.87 1.71C106.4 1.47 120.56 1.47 121.88 1.71C122 2.94 122 8.64 121.88 9.3C120.65 9.39 118.01 9.39 116.75 9.3C116.75 8.73 116.72 7.14 116.75 6.27ZM122.9 10.77C122.99 12.18 123.05 14.19 122.9 15.45C121.04 15.51 105.44 15.51 103.91 15.45C103.76 14.13 103.76 12.15 103.91 10.77C104.42 10.74 106.52 10.71 109.16 10.71C109.16 9.66 109.16 8.55 109.22 7.74C110.3 7.62 113.27 7.62 114.29 7.74C114.35 8.52 114.35 9.63 114.35 10.71C118.31 10.71 122.06 10.74 122.9 10.77ZM113.39 16.47C119.45 16.47 122.69 18.42 122.69 22.14C122.69 25.86 119.45 27.81 113.39 27.81C107.33 27.81 104.09 25.86 104.09 22.14C104.09 18.42 107.33 16.47 113.39 16.47ZM113.39 23.58C116.03 23.58 117.47 23.1 117.47 22.14C117.47 21.18 116.03 20.7 113.39 20.7C110.75 20.7 109.31 21.18 109.31 22.14C109.31 23.1 110.75 23.58 113.39 23.58ZM139.899 6.66C138.069 6.75 126.039 6.75 124.359 6.66C124.149 6 124.149 3.15 124.359 2.49C124.989 2.46 127.179 2.43 129.699 2.43C129.699 1.8 129.729 1.14 129.759 0.539998C130.809 0.389998 133.809 0.389998 134.829 0.539998C134.889 1.14 134.919 1.8 134.919 2.43C137.259 2.43 139.239 2.46 139.899 2.49C140.079 3.06 140.079 5.91 139.899 6.66ZM148.719 7.98C148.869 8.64 148.869 11.82 148.719 12.45C148.209 12.51 147.189 12.57 146.139 12.57C146.109 14.64 146.049 16.32 145.989 16.8C145.119 16.92 142.209 16.92 141.039 16.8C140.889 15.33 140.889 2.79 141.039 1.29C142.059 1.11 144.969 1.11 145.989 1.29C146.079 1.95 146.139 4.8 146.139 7.86C147.189 7.86 148.209 7.92 148.719 7.98ZM132.309 16.71C127.119 16.71 124.599 14.82 124.599 12C124.599 9.21 127.119 7.32 132.309 7.32C137.499 7.32 140.019 9.21 140.019 12C140.019 14.82 137.499 16.71 132.309 16.71ZM132.309 10.95C129.999 10.95 129.129 11.34 129.129 12C129.129 12.69 129.999 13.08 132.309 13.08C134.619 13.08 135.489 12.69 135.489 12C135.489 11.34 134.619 10.95 132.309 10.95ZM135.969 17.25C143.769 17.25 146.739 19.17 146.739 22.38C146.739 25.59 143.769 27.51 135.969 27.51C128.169 27.51 125.199 25.59 125.199 22.38C125.199 19.17 128.169 17.25 135.969 17.25ZM135.969 23.37C140.619 23.37 141.519 22.95 141.519 22.38C141.519 21.81 140.619 21.39 135.969 21.39C131.319 21.39 130.419 21.81 130.419 22.38C130.419 22.95 131.319 23.37 135.969 23.37ZM166.713 21.96C166.923 23.16 166.953 25.56 166.713 26.64C165.213 26.76 150.873 26.76 149.643 26.64C149.433 25.47 149.433 23.1 149.643 21.96C150.123 21.9 152.613 21.87 155.553 21.87V18.75C153.123 18.75 151.053 18.72 150.303 18.66C150.153 17.25 150.153 9.12 150.303 8.01C151.683 7.95 159.633 7.95 160.803 8.01V6.36C159.693 6.39 151.563 6.39 150.153 6.36C149.973 5.28 149.973 2.76 150.153 1.71C151.443 1.56 164.523 1.56 165.813 1.71C165.963 3.15 165.963 10.92 165.813 12.39C164.523 12.42 157.233 12.42 155.493 12.39V14.16C156.813 14.1 164.973 14.1 166.293 14.16C166.443 15.03 166.473 17.67 166.293 18.66C165.513 18.72 163.323 18.75 160.773 18.78V21.87C163.653 21.87 166.143 21.9 166.713 21.96ZM177.393 7.05C176.223 7.05 174.963 7.08 173.943 7.08C173.853 5.91 173.823 3.57 173.913 2.37C174.963 2.31 176.373 2.28 177.663 2.28C183.873 2.28 186.513 4.92 186.513 9.51C186.513 12.63 185.853 14.88 183.963 17.19C182.823 18.6 181.353 20.25 180.183 21.33C182.673 21.27 185.343 21.3 186.933 21.33C187.023 22.56 187.023 24.93 186.933 26.01C185.073 26.13 175.653 26.13 173.553 26.01C173.403 24.57 173.403 22.86 173.553 21.51C174.963 20.1 177.123 17.55 178.233 16.26C180.663 13.44 181.473 11.79 181.473 9.87C181.473 7.95 180.303 7.05 177.393 7.05ZM201.484 7.23C199.954 13.23 196.414 25.08 195.964 26.34C195.004 26.22 191.914 25.47 190.924 25.05C191.284 23.4 195.694 9.12 196.114 7.41C194.644 7.5 188.884 7.5 187.894 7.41C187.834 6.06 187.834 4.02 187.894 2.49C188.884 2.34 198.754 2.34 201.484 2.49C201.574 3.81 201.574 5.64 201.484 7.23ZM206.136 26.04C206.016 25.02 205.956 14.55 206.046 7.23C204.876 7.29 203.946 7.26 202.866 7.23C202.806 6.24 202.776 3.75 202.866 2.46C203.916 2.28 210.186 2.28 211.206 2.46C211.386 3.96 211.386 24.57 211.206 26.04C210.306 26.22 207.306 26.22 206.136 26.04Z" fill="white"/>
</svg>
