<svg xmlns="http://www.w3.org/2000/svg" viewBox="0 0 306.04 108.08"><defs><style>.cls-1{fill:#fff;}</style></defs><g id="레이어_2" data-name="레이어 2"><g id="mobile"><path class="cls-1" d="M1.18,20.08a11.31,11.31,0,0,1,.35-3,7.72,7.72,0,0,1,1.2-2.49,6.51,6.51,0,0,1,2.51-2,14.24,14.24,0,0,1,4.08-1.16l3.9-.59a12.37,12.37,0,0,0,4.21-1.21,2.69,2.69,0,0,0,1.3-2.51,2.9,2.9,0,0,0-1.54-2.72,10.05,10.05,0,0,0-4.73-.86C10,3.56,8.19,4,7.11,4.82A4.68,4.68,0,0,0,5.49,8.76V9h-4V8.76Q1.46,0,12.38,0q5.08,0,7.74,1.82a6.15,6.15,0,0,1,2.64,5.43,5.89,5.89,0,0,1-1.9,4.69,10.67,10.67,0,0,1-5.6,2.2l-4.17.62a16.71,16.71,0,0,0-3.26.75,3.67,3.67,0,0,0-1.78,1.21,3.86,3.86,0,0,0-.72,1.49,11,11,0,0,0-.15,2.06H22.76V23.8H1.18Z"/><path class="cls-1" d="M37,24.08q-5.58,0-8.15-1.89t-2.69-6.12h4a3.93,3.93,0,0,0,1.72,3.49,10.33,10.33,0,0,0,5.11,1,11.52,11.52,0,0,0,5.21-.85A2.88,2.88,0,0,0,43.74,17a2.67,2.67,0,0,0-1.46-2.63,12.31,12.31,0,0,0-5.07-.73H33.54V10.08h3.67A11,11,0,0,0,42,9.35a2.53,2.53,0,0,0,1.38-2.43A2.69,2.69,0,0,0,41.8,4.37,10.7,10.7,0,0,0,37,3.56a9.45,9.45,0,0,0-4.62.89,3.65,3.65,0,0,0-1.68,3.28h-4c.07-2.71,1-4.67,2.65-5.9S33.62,0,37,0s6.15.57,7.81,1.72a5.81,5.81,0,0,1,2.49,5.11,5.58,5.58,0,0,1-.83,3.31,4,4,0,0,1-2.73,1.7c2.64.56,4,2.35,4,5.35a5.76,5.76,0,0,1-2.63,5.18Q42.46,24.08,37,24.08Z"/><path class="cls-1" d="M53.37,24.08a2.27,2.27,0,0,1-1.63-.62,2.13,2.13,0,0,1-.64-1.62,2.17,2.17,0,0,1,.64-1.65,2.27,2.27,0,0,1,1.63-.62,2.14,2.14,0,0,1,2.24,2.27A2.14,2.14,0,0,1,55,23.46,2.22,2.22,0,0,1,53.37,24.08Z"/><path class="cls-1" d="M59.19,20.27H66V4.4a11.78,11.78,0,0,1-6.84,2V2.69q4.6,0,7-2.41h3.73v20h6.77V23.8H59.19Z"/><path class="cls-1" d="M89.43,24.08q-5.37,0-8.33-3.23c-2-2.16-2.95-5.11-2.95-8.87s1-6.64,2.95-8.77S85.85,0,89.43,0s6.3,1.07,8.25,3.21,2.92,5.07,2.92,8.8-1,6.68-2.94,8.84S93,24.08,89.43,24.08ZM82.15,12a10.89,10.89,0,0,0,1.12,5.27L94.05,5a7,7,0,0,0-4.62-1.45A6.63,6.63,0,0,0,84,5.77,9.46,9.46,0,0,0,82.15,12Zm2.66,7.11a7.11,7.11,0,0,0,4.62,1.4,6.49,6.49,0,0,0,5.36-2.21A9.73,9.73,0,0,0,96.6,12a10.93,10.93,0,0,0-1.06-5.09Z"/><path class="cls-1" d="M105.22,24.08a2.26,2.26,0,0,1-1.62-.62,2.13,2.13,0,0,1-.64-1.62,2.17,2.17,0,0,1,.64-1.65,2.26,2.26,0,0,1,1.62-.62,2.14,2.14,0,0,1,2.24,2.27,2.13,2.13,0,0,1-.64,1.62A2.23,2.23,0,0,1,105.22,24.08Z"/><path class="cls-1" d="M107.46,3.81V.28h20.47V3.81a23.32,23.32,0,0,0-3.72,2.53,22.3,22.3,0,0,0-2.76,2.72,14.8,14.8,0,0,0-1.9,2.92,21.63,21.63,0,0,0-1.25,3,18.4,18.4,0,0,0-.7,3,28.85,28.85,0,0,0-.32,2.93c0,.84-.07,1.79-.07,2.85v.06h-4v-.06c0-1,0-2,.06-2.84s.13-1.84.29-3a22.79,22.79,0,0,1,.65-3.12,20.23,20.23,0,0,1,1.16-3,15.87,15.87,0,0,1,1.76-2.95,17.31,17.31,0,0,1,2.54-2.65,19,19,0,0,1,3.43-2.35Z"/><path class="cls-1" d="M127,13.94h23v1.24H127Z"/><path class="cls-1" d="M153.5,20.08a11.31,11.31,0,0,1,.35-3,7.72,7.72,0,0,1,1.2-2.49,6.51,6.51,0,0,1,2.51-2,14.24,14.24,0,0,1,4.08-1.16l3.9-.59a12.37,12.37,0,0,0,4.21-1.21,2.69,2.69,0,0,0,1.3-2.51,2.9,2.9,0,0,0-1.54-2.72,10.05,10.05,0,0,0-4.73-.86c-2.48,0-4.27.42-5.35,1.26a4.68,4.68,0,0,0-1.62,3.94V9h-4V8.76Q153.78,0,164.7,0q5.09,0,7.74,1.82a6.15,6.15,0,0,1,2.64,5.43,5.89,5.89,0,0,1-1.9,4.69,10.67,10.67,0,0,1-5.6,2.2l-4.17.62a16.54,16.54,0,0,0-3.26.75,3.67,3.67,0,0,0-1.78,1.21,3.86,3.86,0,0,0-.72,1.49,11,11,0,0,0-.15,2.06h17.58V23.8H153.5Z"/><path class="cls-1" d="M189.33,24.08c-3.71,0-6.43-.63-8.14-1.89s-2.62-3.3-2.69-6.12h4a3.93,3.93,0,0,0,1.72,3.49,10.33,10.33,0,0,0,5.11,1,11.52,11.52,0,0,0,5.21-.85,2.88,2.88,0,0,0,1.54-2.7,2.67,2.67,0,0,0-1.46-2.63,12.31,12.31,0,0,0-5.07-.73h-3.67V10.08h3.67a11,11,0,0,0,4.75-.73,2.53,2.53,0,0,0,1.38-2.43,2.69,2.69,0,0,0-1.54-2.55,10.72,10.72,0,0,0-4.79-.81,9.5,9.5,0,0,0-4.62.89A3.66,3.66,0,0,0,183,7.73h-4c.07-2.71,1-4.67,2.65-5.9S185.94,0,189.33,0q5.32,0,7.82,1.72a5.81,5.81,0,0,1,2.49,5.11,5.58,5.58,0,0,1-.83,3.31,4,4,0,0,1-2.73,1.7c2.63.56,3.95,2.35,3.95,5.35a5.76,5.76,0,0,1-2.63,5.18C195.64,23.51,193,24.08,189.33,24.08Z"/><path class="cls-1" d="M205.69,24.08a2.27,2.27,0,0,1-1.63-.62,2.13,2.13,0,0,1-.64-1.62,2.17,2.17,0,0,1,.64-1.65,2.27,2.27,0,0,1,1.63-.62,2.14,2.14,0,0,1,2.24,2.27,2.14,2.14,0,0,1-.65,1.62A2.22,2.22,0,0,1,205.69,24.08Z"/><path class="cls-1" d="M211.51,20.27h6.78V4.4a11.77,11.77,0,0,1-6.83,2V2.69q4.59,0,7-2.41h3.73v20H229V23.8H211.51Z"/><path class="cls-1" d="M231.33,20.27h6.78V4.4a11.72,11.72,0,0,1-6.83,2V2.69q4.59,0,7-2.41H242v20h6.78V23.8H231.33Z"/><path class="cls-1" d="M253.09,24.08a2.26,2.26,0,0,1-1.62-.62,2.14,2.14,0,0,1-.65-1.62,2.18,2.18,0,0,1,.65-1.65,2.26,2.26,0,0,1,1.62-.62,2.14,2.14,0,0,1,2.24,2.27,2.13,2.13,0,0,1-.64,1.62A2.24,2.24,0,0,1,253.09,24.08Z"/><path class="cls-1" d="M258.91,20.08a11.74,11.74,0,0,1,.35-3,8,8,0,0,1,1.21-2.49,6.55,6.55,0,0,1,2.5-2,14.41,14.41,0,0,1,4.09-1.16l3.89-.59a12.37,12.37,0,0,0,4.22-1.21,2.69,2.69,0,0,0,1.3-2.51,2.9,2.9,0,0,0-1.54-2.72,10.08,10.08,0,0,0-4.73-.86c-2.48,0-4.27.42-5.35,1.26a4.68,4.68,0,0,0-1.62,3.94V9h-4V8.76Q259.19,0,270.11,0q5.1,0,7.75,1.82a6.15,6.15,0,0,1,2.64,5.43,5.89,5.89,0,0,1-1.9,4.69,10.67,10.67,0,0,1-5.6,2.2l-4.17.62a16.84,16.84,0,0,0-3.27.75,3.69,3.69,0,0,0-2.49,2.7,11,11,0,0,0-.15,2.06H280.5V23.8H258.91Z"/><path class="cls-1" d="M295.2,24.08c-3.68,0-6.39-.77-8.15-2.31s-2.63-3.92-2.63-7.13V10.86c0-3.52.94-6.22,2.8-8.07S291.88,0,295.59,0c3.05,0,5.4.62,7.07,1.86a6,6,0,0,1,2.57,5V7h-4v-.2a2.74,2.74,0,0,0-1.5-2.42,8.11,8.11,0,0,0-4.07-.85A8.56,8.56,0,0,0,290.3,5a5.16,5.16,0,0,0-1.87,4.34v1.37q2.4-3,7.89-3a10.88,10.88,0,0,1,7.07,2.14A7.09,7.09,0,0,1,306,15.71Q306,24.08,295.2,24.08Zm-6.77-8.29a4.08,4.08,0,0,0,1.63,3.6,9.1,9.1,0,0,0,5.11,1.13,9.31,9.31,0,0,0,5.16-1.13A3.92,3.92,0,0,0,302,15.9a4,4,0,0,0-1.61-3.54,9.07,9.07,0,0,0-5-1.08C290.76,11.28,288.43,12.79,288.43,15.79Z"/><path class="cls-1" d="M10.16,66.08c-3.56,0-6.15-.81-7.75-2.42S0,59.54,0,56.14H4A7.38,7.38,0,0,0,5.35,61q1.32,1.56,4.81,1.56T15,61a6.68,6.68,0,0,0,1.35-4.56V42.28h4V56.45c0,3.25-.81,5.66-2.42,7.25S13.67,66.08,10.16,66.08Z"/><path class="cls-1" d="M36.2,66.08q-5.79,0-8.31-2.31t-2.52-7.55V42.28h3.92V56.22q0,3.51,1.65,4.9c1.1.94,2.86,1.4,5.26,1.4s4.17-.46,5.27-1.4,1.65-2.56,1.65-4.9V42.28H47V56.22c0,3.51-.85,6-2.53,7.56S40.05,66.08,36.2,66.08Z"/><path class="cls-1" d="M52.36,65.8V42.28h4L70.17,60.45V42.28h4V65.8h-4L56.31,47.63V65.8Z"/><path class="cls-1" d="M90.5,66.08q-5.69,0-8.85-3.44A12.27,12.27,0,0,1,78.48,54a13.44,13.44,0,0,1,.79-4.63,11.51,11.51,0,0,1,2.28-3.81A10.27,10.27,0,0,1,85.43,43a14.44,14.44,0,0,1,5.37-1A12.6,12.6,0,0,1,99,44.63a9.22,9.22,0,0,1,3.61,6.44l0,.28H98.5l0-.28a5.37,5.37,0,0,0-2.34-4,8.83,8.83,0,0,0-5.25-1.49c-2.86,0-5,.8-6.32,2.38a9,9,0,0,0-2,6,9.25,9.25,0,0,0,2,6.11,7.26,7.26,0,0,0,5.92,2.38A8.72,8.72,0,0,0,95.79,61a6.61,6.61,0,0,0,2.55-4.24h-9.8V53.4h14.08V65.8H99.9l-.5-4.12Q96.69,66.08,90.5,66.08Z"/><path class="cls-1" d="M106.32,55.94h23v1.24h-23Z"/><path class="cls-1" d="M144.42,66.08q-5.68,0-8.84-3.44A12.27,12.27,0,0,1,132.41,54a13.2,13.2,0,0,1,.79-4.63,11.51,11.51,0,0,1,2.28-3.81A10.27,10.27,0,0,1,139.36,43a14.4,14.4,0,0,1,5.37-1,12.6,12.6,0,0,1,8.18,2.63,9.22,9.22,0,0,1,3.61,6.44l0,.28h-4.12l0-.28a5.33,5.33,0,0,0-2.33-4,8.87,8.87,0,0,0-5.25-1.49c-2.86,0-5,.8-6.32,2.38a9,9,0,0,0-2,6,9.25,9.25,0,0,0,2,6.11,7.26,7.26,0,0,0,5.92,2.38A8.67,8.67,0,0,0,149.71,61a6.53,6.53,0,0,0,2.55-4.24h-9.8V53.4h14.09V65.8h-2.72l-.5-4.12Q150.62,66.08,144.42,66.08Z"/><path class="cls-1" d="M172.06,66.08c-3.86,0-6.64-.77-8.32-2.31s-2.52-4.06-2.52-7.55V42.28h3.92V56.22q0,3.51,1.65,4.9c1.11.94,2.86,1.4,5.27,1.4s4.16-.46,5.26-1.4,1.65-2.56,1.65-4.9V42.28h3.93V56.22q0,5.27-2.54,7.56T172.06,66.08Z"/><path class="cls-1" d="M19.49,107.8v-10H5.94v10H2V84.28h4v10H19.49v-10h4V107.8Z"/><path class="cls-1" d="M27.72,107.8v-3.56h7.22V87.84H27.72V84.28H46.09v3.56h-7.2v16.4h7.2v3.56Z"/><path class="cls-1" d="M66.53,107.8l-10.84-10H54.32v10h-4V84.28h4v10h1.37l10.84-10h5.35L58.8,96,71.88,107.8Z"/><path class="cls-1" d="M92.43,107.8a3.83,3.83,0,0,1-.34-2.1v-3.14a3.15,3.15,0,0,0-1.16-2.75A5.75,5.75,0,0,0,87.58,99H78.65v8.82h-4V84.28h13a9.31,9.31,0,0,1,6.23,1.85,6.76,6.76,0,0,1,2.14,5.4,6.35,6.35,0,0,1-1,3.71,4.76,4.76,0,0,1-2.81,1.92A4.64,4.64,0,0,1,95.06,99a5.79,5.79,0,0,1,1,3.47v3.25a4,4,0,0,0,.33,2.1ZM78.65,95.42h8.93a5.53,5.53,0,0,0,3.32-.82C91.64,94.05,92,93,92,91.5a3.27,3.27,0,0,0-1.14-2.82,5.89,5.89,0,0,0-3.51-.84H78.65Z"/><path class="cls-1" d="M111.92,108.08q-5.69,0-8.85-3.44A12.27,12.27,0,0,1,99.9,96a13.2,13.2,0,0,1,.79-4.63A11.51,11.51,0,0,1,103,87.57,10.27,10.27,0,0,1,106.85,85a14.44,14.44,0,0,1,5.37-1,12.6,12.6,0,0,1,8.18,2.63A9.22,9.22,0,0,1,124,93.07l0,.28h-4.12l0-.28a5.33,5.33,0,0,0-2.33-4,8.83,8.83,0,0,0-5.25-1.49c-2.86,0-5,.8-6.32,2.38A9,9,0,0,0,104,96a9.25,9.25,0,0,0,2,6.11,7.26,7.26,0,0,0,5.92,2.38,8.72,8.72,0,0,0,5.35-1.53,6.55,6.55,0,0,0,2.54-4.24H110V95.4H124v12.4h-2.72l-.5-4.12Q118.11,108.07,111.92,108.08Z"/><path class="cls-1" d="M146.66,107.8a4,4,0,0,1-.33-2.1v-3.14a3.15,3.15,0,0,0-1.16-2.75,5.77,5.77,0,0,0-3.35-.83h-8.93v8.82h-3.95V84.28h13c2.73,0,4.8.62,6.23,1.85a6.73,6.73,0,0,1,2.14,5.4,6.42,6.42,0,0,1-1,3.71,4.76,4.76,0,0,1-2.81,1.92A4.62,4.62,0,0,1,149.29,99a5.72,5.72,0,0,1,1,3.47v3.25a3.93,3.93,0,0,0,.34,2.1ZM132.89,95.42h8.93a5.55,5.55,0,0,0,3.32-.82,3.68,3.68,0,0,0,1.1-3.1,3.27,3.27,0,0,0-1.13-2.82,6,6,0,0,0-3.52-.84h-8.7Z"/><path class="cls-1" d="M175.39,104.61a13.38,13.38,0,0,1-18,0,12.79,12.79,0,0,1,0-17.15A12.29,12.29,0,0,1,178.69,96,12,12,0,0,1,175.39,104.61ZM158.17,96a9,9,0,0,0,2.09,6.06,9,9,0,0,0,12.29,0,9.78,9.78,0,0,0,0-12.06,9,9,0,0,0-12.29,0A8.86,8.86,0,0,0,158.17,96Z"/><path class="cls-1" d="M193.65,108.08q-5.81,0-8.32-2.31t-2.52-7.55V84.28h3.92V98.22q0,3.51,1.65,4.9c1.1.94,2.86,1.4,5.27,1.4s4.16-.46,5.26-1.4,1.65-2.56,1.65-4.9V84.28h3.92V98.22q0,5.27-2.53,7.56T193.65,108.08Z"/><path class="cls-1" d="M209.8,107.8V84.28h3.95l13.86,18.17V84.28h3.95V107.8h-3.95L213.75,89.63V107.8Z"/><path class="cls-1" d="M237.1,107.8V84.28h11.37q5.29,0,8.2,2.94T259.58,96q0,5.85-2.92,8.81t-8.19,3Zm4-3.56h7.45c2.39,0,4.16-.67,5.3-2s1.73-3.41,1.73-6.17-.58-4.82-1.73-6.17-2.91-2-5.3-2h-7.45Z"/></g></g></svg>