<?xml version="1.0" encoding="UTF-8"?>
<svg id="_레이어_2" data-name="레이어 2" xmlns="http://www.w3.org/2000/svg" viewBox="0 0 224.37 270.6">
  <defs>
    <style>
      .cls-1 {
        fill: #fff;
        stroke-width: 0px;
      }
    </style>
  </defs>
  <g id="mobile">
    <g>
      <polygon class="cls-1" points="136.34 118.28 135.47 117.41 112.18 140.7 88.89 117.41 88.03 118.28 111.32 141.57 88.03 164.86 88.89 165.72 112.18 142.43 135.47 165.72 136.34 164.86 113.05 141.57 136.34 118.28"/>
      <g>
        <polygon class="cls-1" points="57.69 0 44.87 0 38.46 6.41 38.46 21.11 36.59 19.23 33.93 19.23 32.05 21.11 30.18 19.23 27.52 19.23 25.64 21.11 23.76 19.23 21.11 19.23 19.23 21.11 19.23 0 6.41 0 0 6.41 0 64.11 25.64 64.11 19.23 57.69 19.23 36.59 21.11 38.46 23.76 38.46 25.64 36.59 27.52 38.46 30.18 38.46 32.05 36.59 33.93 38.46 36.59 38.46 38.46 36.59 38.46 64.11 64.1 64.11 57.69 57.69 57.69 0"/>
        <polygon class="cls-1" points="77.54 19.24 83.18 13.61 83.18 5.64 80.36 2.83 80.36 2.83 80.36 2.83 77.54 0 69.58 0 63.94 5.64 63.94 13.61 69.58 19.24 77.54 19.24"/>
        <polygon class="cls-1" points="83.34 27.52 81.46 25.65 78.8 25.65 76.93 27.52 75.05 25.65 72.39 25.65 70.52 27.52 68.64 25.65 65.98 25.65 64.1 27.52 64.1 64.11 76.93 64.11 70.52 57.69 76.93 57.69 76.93 64.11 89.75 64.11 83.34 57.69 83.34 27.52"/>
        <polygon class="cls-1" points="147.44 38.46 147.44 38.46 134.62 25.65 134.62 25.65 134.62 25.64 147.44 12.82 147.44 0 141.04 0 138.38 0 134.62 0 108.98 25.65 108.98 25.64 108.98 0 96.16 0 89.75 6.41 89.75 64.11 121.8 64.11 108.98 51.28 121.8 38.47 128.21 44.87 128.21 64.11 160.26 64.11 147.44 51.28 147.44 38.46"/>
        <path class="cls-1" d="m211.55,51.29v-12.82l-6.41-6.41,6.41-6.41v-12.82L198.73,0h0s-44.87,0-44.87,0v51.28l12.82,12.83h25.64l-19.23-19.23h19.23v12.82l6.41,6.41h25.64l-12.82-12.82Zm-19.23-21.89l-1.88-1.88h-2.66l-1.88,1.88-1.88-1.88h-2.65l-1.88,1.88-1.88-1.88h-2.66l-1.88,1.88v-13.92l1.88,1.88h2.66l1.88-1.88,1.88,1.88h2.65l1.88-1.88,1.88,1.88h2.66l1.88-1.88v13.92Z"/>
        <polygon class="cls-1" points="47.4 77.21 50.09 77.21 50.09 82.5 55.18 82.5 55.18 77.21 57.87 77.21 57.87 90.67 55.18 90.67 55.18 84.85 50.09 84.85 50.09 90.67 47.4 90.67 47.4 77.21 47.4 77.21"/>
        <path class="cls-1" d="m62.29,78.85c-.46,0-.84-.14-1.15-.41-.3-.27-.45-.62-.45-1.05s.15-.79.45-1.05c.3-.27.69-.4,1.15-.4s.84.13,1.14.4.44.62.44,1.05-.15.77-.44,1.05c-.3.27-.68.41-1.14.41h0Zm-1.35,1.64h2.65v10.18h-2.65v-10.18h0Z"/>
        <polygon class="cls-1" points="66.69 77.21 69.38 77.21 69.38 83.05 69.44 83.05 73.89 77.21 76.85 77.21 72.75 82.5 77.58 90.67 74.62 90.67 71.15 84.63 69.38 86.89 69.38 90.67 66.69 90.67 66.69 77.21 66.69 77.21"/>
        <path class="cls-1" d="m86.49,90.67l-2.76-5.09h-1.87v5.09h-2.69v-13.46h4.69c.7,0,1.36.07,1.98.2.62.13,1.16.36,1.61.67.45.32.81.73,1.07,1.25.26.52.39,1.17.39,1.95,0,1.02-.23,1.84-.7,2.47-.47.63-1.09,1.1-1.86,1.4l3.14,5.51h-3Zm-4.64-7.22h1.75c.87,0,1.54-.18,1.99-.54.45-.36.68-.9.68-1.63s-.23-1.23-.68-1.52c-.45-.28-1.12-.43-1.99-.43h-1.75v4.11h0Z"/>
        <path class="cls-1" d="m101.47,90.92c-.92,0-1.78-.15-2.56-.45-.79-.3-1.47-.75-2.05-1.33-.58-.58-1.03-1.3-1.35-2.16-.33-.86-.49-1.86-.49-2.98s.17-2.09.51-2.96c.34-.87.8-1.61,1.38-2.22.58-.61,1.26-1.07,2.05-1.38.78-.32,1.62-.47,2.52-.47.97,0,1.8.18,2.48.53.69.35,1.25.75,1.68,1.2l-1.44,1.71c-.33-.31-.69-.58-1.1-.8-.41-.22-.92-.33-1.54-.33-.56,0-1.07.11-1.54.32-.47.21-.87.52-1.2.92-.33.4-.59.89-.78,1.46-.19.57-.28,1.22-.28,1.94,0,1.47.33,2.62,1,3.45.67.83,1.66,1.25,2.98,1.25.33,0,.64-.04.95-.13.3-.09.55-.21.75-.38v-2.65h-2.38v-2.2h4.78v6.07c-.46.45-1.07.83-1.82,1.15-.75.32-1.6.47-2.54.47h0Z"/>
        <path class="cls-1" d="m116.05,90.67l-2.76-5.09h-1.87v5.09h-2.69v-13.46h4.69c.7,0,1.36.07,1.98.2.62.13,1.15.36,1.61.67.45.32.81.73,1.07,1.25.26.52.39,1.17.39,1.95,0,1.02-.23,1.84-.7,2.47-.47.63-1.09,1.1-1.86,1.4l3.15,5.51h-3Zm-4.64-7.22h1.75c.87,0,1.54-.18,1.99-.54.45-.36.68-.9.68-1.63s-.23-1.23-.68-1.52c-.45-.28-1.12-.43-1.99-.43h-1.75v4.11h0Z"/>
        <path class="cls-1" d="m126.47,90.92c-.9,0-1.71-.16-2.44-.48-.73-.32-1.37-.79-1.9-1.4-.53-.61-.94-1.35-1.24-2.22-.29-.87-.44-1.85-.44-2.94s.15-2.07.44-2.93c.29-.86.7-1.59,1.24-2.18.53-.59,1.17-1.05,1.9-1.35.73-.31,1.55-.46,2.44-.46s1.7.16,2.44.47c.74.31,1.38.77,1.91,1.35.53.59.95,1.31,1.24,2.17.29.86.44,1.84.44,2.93s-.15,2.07-.44,2.94c-.29.87-.7,1.61-1.24,2.22-.53.61-1.17,1.08-1.91,1.4-.74.32-1.55.48-2.44.48h0Zm0-2.33c.5,0,.95-.11,1.36-.33.41-.22.75-.53,1.04-.95.29-.41.5-.91.65-1.49.15-.58.23-1.23.23-1.95,0-1.45-.29-2.59-.88-3.4-.59-.81-1.38-1.22-2.39-1.22s-1.8.41-2.39,1.22c-.59.81-.88,1.95-.88,3.4,0,.72.08,1.36.23,1.95.15.58.37,1.08.66,1.49.28.41.63.73,1.04.95.41.22.86.33,1.35.33h0Z"/>
        <path class="cls-1" d="m140.29,90.92c-.82,0-1.56-.12-2.2-.35-.64-.24-1.19-.61-1.65-1.12-.45-.51-.8-1.16-1.04-1.96-.24-.8-.35-1.76-.35-2.87v-7.4h2.69v7.64c0,.7.06,1.29.17,1.77.11.48.28.86.5,1.16.22.29.49.5.8.63.31.13.67.19,1.07.19s.76-.06,1.08-.19c.32-.13.6-.34.83-.63.23-.29.41-.68.53-1.16.12-.48.18-1.07.18-1.77v-7.64h2.58v7.4c0,1.12-.12,2.07-.34,2.87-.23.8-.57,1.45-1.02,1.96-.45.51-.99.88-1.64,1.12-.64.24-1.37.35-2.2.35h0Z"/>
        <path class="cls-1" d="m148.72,77.21h2.75l3.91,7.16,1.35,2.91h.09c-.07-.7-.15-1.47-.23-2.31-.08-.84-.12-1.64-.12-2.4v-5.36h2.53v13.46h-2.73l-3.89-7.2-1.36-2.89h-.09c.06.73.13,1.5.21,2.31.08.81.12,1.61.12,2.38v5.4h-2.53v-13.46h0Z"/>
        <path class="cls-1" d="m162.34,77.21h3.69c1.03,0,1.95.13,2.77.4.82.27,1.51.68,2.09,1.23.58.55,1.02,1.24,1.33,2.08.31.84.46,1.82.46,2.96s-.15,2.12-.46,2.96c-.31.85-.74,1.55-1.31,2.12-.56.56-1.25.99-2.05,1.27-.8.29-1.7.43-2.69.43h-3.84v-13.46h0Zm3.53,11.29c.63,0,1.2-.09,1.7-.26.5-.18.93-.45,1.28-.82.35-.37.62-.85.81-1.43.19-.58.28-1.29.28-2.11s-.09-1.53-.28-2.1c-.19-.58-.46-1.04-.81-1.4-.35-.36-.78-.62-1.28-.78-.5-.16-1.07-.25-1.7-.25h-.84v9.16h.84Z"/>
      </g>
      <g>
        <g>
          <path class="cls-1" d="m14.84,202.1l-1.87-4.84H4.74l-1.85,4.84H0l7.47-19.1h2.79l7.47,19.1h-2.89Zm-9.19-7.17h6.43l-3.22-8.36-3.22,8.36Z"/>
          <path class="cls-1" d="m27.4,190.77c-.33-.05-.68-.08-1.04-.08-2.18,0-4.13,1.11-4.13,3.27v7.88l-2.2.74c-.28.1-.53-.05-.53-.33v-14.08h2.61v1.57c.99-1.14,2.46-1.82,4.26-1.82.4,0,.88.05,1.24.1l-.2,2.76Z"/>
          <path class="cls-1" d="m36.97,190.75h-3.09v8.21c0,.58.36.81.94.81h2.66l-.25,2.33h-3.24c-1.98,0-2.84-.94-2.84-2.79v-8.56h-2.28v-2.33h2.28v-3.55l2.21-.73c.28-.1.53.05.53.33v3.95h3.09v2.33Z"/>
          <path class="cls-1" d="m39.56,185.23v-2.89h3.09v2.89h-3.09Zm.71,17.35c-.28.1-.53-.05-.53-.33v-13.83h2.74v13.43l-2.2.74Z"/>
          <path class="cls-1" d="m50.48,202.6c-3.09,0-5.34-1.64-5.73-4.56l2.74-.25c.25,1.64,1.39,2.53,2.99,2.53s2.53-.68,2.53-1.8c0-1.01-.79-1.75-2.35-2.2l-2.13-.63c-1.95-.58-3.27-1.55-3.27-3.78,0-2.58,1.98-4,4.92-4,2.58,0,4.84,1.44,5.22,4.1l-2.74.25c-.17-1.09-1.16-2.03-2.51-2.03s-2.13.63-2.13,1.6c0,1.02.76,1.52,1.85,1.85l2.13.63c2.23.66,3.78,1.9,3.78,4.23,0,3.01-2.71,4.05-5.29,4.05Z"/>
          <path class="cls-1" d="m65.27,190.75h-3.09v8.21c0,.58.36.81.94.81h2.66l-.25,2.33h-3.24c-1.98,0-2.84-.94-2.84-2.79v-8.56h-2.28v-2.33h2.28v-3.55l2.21-.73c.28-.1.53.05.53.33v3.95h3.09v2.33Z"/>
        </g>
        <g>
          <path class="cls-1" d="m20.24,257.35H.37v-48.83h19.87c11.04,0,20.5,6.81,20.5,18.99v10.85c0,12.18-9.46,18.99-20.5,18.99Zm10.92-28.58c0-8.08-4.54-12.05-10.92-12.05h-10.28v32.43h10.28c6.37,0,10.92-3.97,10.92-12.05v-8.33Z"/>
          <path class="cls-1" d="m53.37,243.03v1.13c0,4.48,2.77,6.56,6.62,6.56,3.41,0,5.99-1.64,6.56-4.48l9.4.76c-.94,7.44-7.95,11.61-15.96,11.61-8.83,0-16.09-4.42-16.09-15.08v-7.7c0-10.66,7.26-15.08,16.09-15.08s16.09,4.42,16.09,15.08v7.19h-22.71Zm0-7.82h13.25v-.63c0-3.66-2.77-5.93-6.62-5.93s-6.62,2.27-6.62,5.93v.63Z"/>
          <path class="cls-1" d="m87.44,243.03v1.13c0,4.48,2.77,6.56,6.62,6.56,3.41,0,5.99-1.64,6.56-4.48l9.4.76c-.94,7.44-7.95,11.61-15.96,11.61-8.83,0-16.09-4.42-16.09-15.08v-7.7c0-10.66,7.26-15.08,16.09-15.08s16.09,4.42,16.09,15.08v7.19h-22.71Zm0-7.82h13.25v-.63c0-3.66-2.78-5.93-6.63-5.93s-6.62,2.27-6.62,5.93v.63Z"/>
          <path class="cls-1" d="m117.1,258.36c-1.77.63-2.52.19-2.52-1.45v-48.39h9.59v20.5l17.79-20.5h11.73l-20.95,23.66,21.58,25.17h-11.92l-18.23-21.64v20.19l-7.06,2.46Z"/>
          <path class="cls-1" d="m182.03,258.36c-1.64.57-2.21.25-2.46-1.26l-.63-3.16c-2.27,2.52-5.49,4.16-9.46,4.16-8.33,0-15.14-4.54-15.14-15.39v-6.56c0-10.85,6.81-15.39,15.14-15.39,3.79,0,6.81,1.45,9.08,3.72v-3.09h8.58v28.07l1.26,6.75-6.37,2.14Zm-4.35-15.58v-6.31c0-4.67-2.9-7.51-6.94-7.51s-6.94,2.21-6.94,6.88v7.19c0,4.67,2.9,6.88,6.94,6.88s6.81-2.71,6.94-7.13Z"/>
          <path class="cls-1" d="m206.07,270.6h-9.84l5.49-13.25-13.31-35.33h9.84l8.01,23.72,8.26-23.72h9.84l-18.29,48.58Z"/>
        </g>
      </g>
    </g>
  </g>
</svg>