<svg xmlns="http://www.w3.org/2000/svg" viewBox="0 0 47.04 34.57"><defs><style>.cls-1{fill:#bda0e2;}</style></defs><g id="레이어_2" data-name="레이어 2"><g id="소개"><polygon class="cls-1" points="6.39 0 2.65 0 0 2.65 0 6.39 2.65 9.03 6.39 9.03 9.03 6.39 9.03 2.65 6.39 0"/><polygon class="cls-1" points="6.39 6.39 2.65 6.39 0 9.03 0 12.77 2.65 15.42 6.39 15.42 9.03 12.77 9.03 9.03 6.39 6.39"/><polygon class="cls-1" points="6.39 12.77 2.65 12.77 0 15.42 0 19.16 2.65 21.8 6.39 21.8 9.03 19.16 9.03 15.42 6.39 12.77"/><polygon class="cls-1" points="6.39 25.54 2.65 25.54 0 28.19 0 31.93 2.65 34.57 6.39 34.57 9.03 31.93 9.03 28.19 6.39 25.54"/><polygon class="cls-1" points="19.16 0 15.42 0 12.77 2.65 12.77 6.39 15.42 9.03 19.16 9.03 21.8 6.39 21.8 2.65 19.16 0"/><polygon class="cls-1" points="19.16 12.77 15.42 12.77 12.77 15.42 12.77 19.16 15.42 21.8 19.16 21.8 21.8 19.16 21.8 15.42 19.16 12.77"/><polygon class="cls-1" points="19.16 19.16 15.42 19.16 12.77 21.8 12.77 25.54 15.42 28.19 19.16 28.19 21.8 25.54 21.8 21.8 19.16 19.16"/><polygon class="cls-1" points="19.16 25.54 15.42 25.54 12.77 28.19 12.77 31.93 15.42 34.57 19.16 34.57 21.8 31.93 21.8 28.19 19.16 25.54"/><polygon class="cls-1" points="12.77 0 9.03 0 6.39 2.65 6.39 6.39 9.03 9.03 12.77 9.03 15.42 6.39 15.42 2.65 12.77 0"/><polygon class="cls-1" points="12.77 12.77 9.03 12.77 6.39 15.42 6.39 19.16 9.03 21.8 12.77 21.8 15.42 19.16 15.42 15.42 12.77 12.77"/><polygon class="cls-1" points="12.77 25.54 9.03 25.54 6.39 28.19 6.39 31.93 9.03 34.57 12.77 34.57 15.42 31.93 15.42 28.19 12.77 25.54"/><polygon class="cls-1" points="31.63 0 27.89 0 25.24 2.65 25.24 6.39 27.89 9.03 31.63 9.03 34.27 6.39 34.27 2.65 31.63 0"/><polygon class="cls-1" points="31.63 6.39 27.89 6.39 25.24 9.03 25.24 12.77 27.89 15.42 31.63 15.42 34.27 12.77 34.27 9.03 31.63 6.39"/><polygon class="cls-1" points="31.63 12.77 27.89 12.77 25.24 15.42 25.24 19.16 27.89 21.8 31.63 21.8 34.27 19.16 34.27 15.42 31.63 12.77"/><polygon class="cls-1" points="31.63 19.16 27.89 19.16 25.24 21.8 25.24 25.54 27.89 28.19 31.63 28.19 34.27 25.54 34.27 21.8 31.63 19.16"/><polygon class="cls-1" points="31.63 25.54 27.89 25.54 25.24 28.19 25.24 31.93 27.89 34.57 31.63 34.57 34.27 31.93 34.27 28.19 31.63 25.54"/><polygon class="cls-1" points="44.4 0 40.66 0 38.01 2.65 38.01 6.39 40.66 9.03 44.4 9.03 47.04 6.39 47.04 2.65 44.4 0"/><polygon class="cls-1" points="44.4 12.77 40.66 12.77 38.01 15.42 38.01 19.16 40.66 21.8 44.4 21.8 47.04 19.16 47.04 15.42 44.4 12.77"/><polygon class="cls-1" points="38.01 0 34.27 0 31.63 2.65 31.63 6.39 34.27 9.03 38.01 9.03 40.66 6.39 40.66 2.65 38.01 0"/><polygon class="cls-1" points="38.01 12.77 34.27 12.77 31.63 15.42 31.63 19.16 34.27 21.8 38.01 21.8 40.66 19.16 40.66 15.42 38.01 12.77"/></g></g></svg>