<svg xmlns="http://www.w3.org/2000/svg" viewBox="0 0 46.49 34.57"><defs><style>.cls-1{fill:#bda0e2;}</style></defs><g id="레이어_2" data-name="레이어 2"><g id="소개"><polygon class="cls-1" points="6.34 0 2.63 0 0 2.65 0 6.39 2.63 9.03 6.34 9.03 8.97 6.39 8.97 2.65 6.34 0"/><polygon class="cls-1" points="6.34 6.39 2.63 6.39 0 9.03 0 12.77 2.63 15.42 6.34 15.42 8.97 12.77 8.97 9.03 6.34 6.39"/><polygon class="cls-1" points="6.34 12.77 2.63 12.77 0 15.42 0 19.16 2.63 21.8 6.34 21.8 8.97 19.16 8.97 15.42 6.34 12.77"/><polygon class="cls-1" points="19.03 0 15.31 0 12.68 2.65 12.68 6.39 15.31 9.03 19.03 9.03 21.65 6.39 21.65 2.65 19.03 0"/><polygon class="cls-1" points="19.03 6.39 15.31 6.39 12.68 9.03 12.68 12.77 15.31 15.42 19.03 15.42 21.65 12.77 21.65 9.03 19.03 6.39"/><polygon class="cls-1" points="19.03 12.77 15.31 12.77 12.68 15.42 12.68 19.16 15.31 21.8 19.03 21.8 21.65 19.16 21.65 15.42 19.03 12.77"/><polygon class="cls-1" points="19.03 19.16 15.31 19.16 12.68 21.8 12.68 25.54 15.31 28.19 19.03 28.19 21.65 25.54 21.65 21.8 19.03 19.16"/><polygon class="cls-1" points="19.03 25.54 15.31 25.54 12.68 28.19 12.68 31.93 15.31 34.57 19.03 34.57 21.65 31.93 21.65 28.19 19.03 25.54"/><polygon class="cls-1" points="12.68 12.77 8.97 12.77 6.34 15.42 6.34 19.16 8.97 21.8 12.68 21.8 15.31 19.16 15.31 15.42 12.68 12.77"/><polygon class="cls-1" points="31.18 0 27.46 0 24.83 2.65 24.83 6.39 27.46 9.03 31.18 9.03 33.8 6.39 33.8 2.65 31.18 0"/><polygon class="cls-1" points="31.18 6.39 27.46 6.39 24.83 9.03 24.83 12.77 27.46 15.42 31.18 15.42 33.8 12.77 33.8 9.03 31.18 6.39"/><polygon class="cls-1" points="31.18 12.77 27.46 12.77 24.83 15.42 24.83 19.16 27.46 21.8 31.18 21.8 33.8 19.16 33.8 15.42 31.18 12.77"/><polygon class="cls-1" points="31.18 19.16 27.46 19.16 24.83 21.8 24.83 25.54 27.46 28.19 31.18 28.19 33.8 25.54 33.8 21.8 31.18 19.16"/><polygon class="cls-1" points="31.18 25.54 27.46 25.54 24.83 28.19 24.83 31.93 27.46 34.57 31.18 34.57 33.8 31.93 33.8 28.19 31.18 25.54"/><polygon class="cls-1" points="43.86 0 40.14 0 37.52 2.65 37.52 6.39 40.14 9.03 43.86 9.03 46.49 6.39 46.49 2.65 43.86 0"/><polygon class="cls-1" points="43.86 12.77 40.14 12.77 37.52 15.42 37.52 19.16 40.14 21.8 43.86 21.8 46.49 19.16 46.49 15.42 43.86 12.77"/><polygon class="cls-1" points="37.52 0 33.8 0 31.18 2.65 31.18 6.39 33.8 9.03 37.52 9.03 40.14 6.39 40.14 2.65 37.52 0"/><polygon class="cls-1" points="37.52 12.77 33.8 12.77 31.18 15.42 31.18 19.16 33.8 21.8 37.52 21.8 40.14 19.16 40.14 15.42 37.52 12.77"/></g></g></svg>