<svg xmlns="http://www.w3.org/2000/svg" viewBox="0 0 268 25.69"><defs><style>.cls-1{fill:#fff;}</style></defs><g id="레이어_2" data-name="레이어 2"><g id="레이어_1-2" data-name="레이어 1"><polygon class="cls-1" points="125.26 0.12 125.26 0.12 122.51 0.12 122.51 0.12 122.51 0.12 121.53 1.09 120.56 0.12 120.56 0.12 117.81 0.12 117.81 0.12 116.83 1.09 115.86 0.12 115.86 0.12 115.86 0.12 113.11 0.12 113.11 0.12 112.13 1.09 111.16 0.12 111.16 0.12 108.41 0.12 108.41 0.12 106.46 2.06 106.46 2.06 106.46 4.82 103.7 4.82 103.7 4.82 101.76 6.77 101.76 6.77 101.76 9.52 101.76 9.52 101.76 9.52 102.73 10.49 101.76 11.47 101.76 11.47 101.76 14.22 101.76 14.22 102.73 15.2 101.76 16.17 101.76 16.17 101.76 18.92 101.76 18.92 103.7 20.87 103.7 20.87 106.46 20.87 106.46 23.62 108.41 25.57 111.16 25.57 112.13 24.6 113.11 25.57 115.86 25.57 116.83 24.6 117.81 25.57 120.56 25.57 122.51 23.62 122.51 23.62 122.51 20.87 125.26 20.87 127.21 18.92 127.21 16.17 126.24 15.2 127.21 14.22 127.21 11.47 125.26 9.52 122.51 9.52 122.51 9.52 121.53 10.49 120.56 9.52 117.81 9.52 115.86 11.47 115.86 14.22 117.81 16.17 120.56 16.17 120.56 18.92 117.81 18.92 116.83 19.9 115.86 18.92 115.86 18.92 113.11 18.92 113.11 18.92 112.13 19.9 111.16 18.92 108.41 18.92 108.41 18.92 108.41 16.17 107.43 15.2 108.41 14.22 108.41 11.47 107.43 10.49 108.41 9.52 108.41 9.52 108.41 6.77 108.41 6.77 111.16 6.77 112.13 5.79 113.11 6.77 115.86 6.77 116.83 5.79 117.81 6.77 120.56 6.77 121.53 5.79 122.51 6.77 125.26 6.77 127.21 4.82 127.21 4.82 127.21 2.06 127.21 2.06 125.26 0.12"/><path class="cls-1" d="M268,9.52V6.77h0l-1.95-1.95H263.3V2.07L261.35.12H258.6l-1,1-1-1H253.9l-1,1-1-1h-2.76l-1,1-1-1h-2.76l-1.94,1.94h0V4.82h0l1,1-1,1h0V9.52h0l1,1-1,1v2.75l1,1-1,1v2.75l1,1-1,1h0v2.75h0l1.94,1.95h2.76l1-1,1,1H252l1-1,1,1h2.75l1-1,1,1h2.75l1.95-1.95h0V20.87h2.75L268,18.92V16.17l-1-1,1-1h0V11.47l-1-1Zm-6.65,4.7,1,1-1,1v2.75H258.6l-1,1-1-1H253.9l-1,1-1-1h-2.76V16.17l-1-1,1-1V11.47l-1-1,1-1h0V6.77H252l1-1,1,1h2.75l1-1,1,1h2.75V9.52l1,1-1,1v2.75Z"/><path class="cls-1" d="M183.62,6.77l-2-1.95h-2.75V2.07L177,.12h-2.75l-1,1-1-1h-2.75l-1,1-1-1h-2.75l-1.95,1.94h0V4.82h-2.75l-2,1.95h0V9.52h0l1,1-1,1v2.75l1,1-1,1v2.75l2,1.95h2.75v2.75h0l1.95,1.95h2.75l1-1,1,1h2.75l1-1,1,1H177l1.95-1.95h0V20.87h2.75l2-1.95h0V16.17h0l-1-1,1-1h0V11.47l-1-1,1-1V6.77ZM177,14.22l1,1-1,1h0v2.75h-2.75l-1,1-1-1h-2.75l-1,1-1-1h-2.75V16.17l-1-1,1-1V11.47l-1-1,1-1h0V6.77h2.75l1-1,1,1h2.75l1-1,1,1H177V9.52l1,1-1,1v2.75Z"/><polygon class="cls-1" points="207.13 0.12 205.18 2.06 205.18 4.82 205.18 4.82 205.18 4.82 206.16 5.79 205.18 6.77 205.18 6.77 205.18 9.52 206.16 10.49 205.18 11.47 205.18 14.22 205.18 14.22 206.16 15.2 205.18 16.17 205.18 18.92 202.43 18.92 201.45 19.9 200.48 18.92 197.72 18.92 196.75 19.9 195.78 18.92 193.02 18.92 193.02 16.17 192.05 15.2 193.02 14.22 193.02 11.47 192.05 10.49 193.02 9.52 193.02 9.52 193.02 6.77 192.05 5.79 193.02 4.82 193.02 4.82 193.02 2.06 193.02 2.06 191.08 0.12 191.08 0.12 188.32 0.12 188.32 0.12 188.32 0.12 186.38 2.06 186.38 2.06 186.38 4.82 186.38 4.82 187.35 5.79 186.38 6.77 186.38 9.52 186.38 9.52 187.35 10.49 186.38 11.47 186.38 14.22 187.35 15.2 186.38 16.17 186.38 18.92 188.32 20.87 188.32 20.87 191.08 20.87 191.08 23.62 193.02 25.57 195.78 25.57 196.75 24.6 197.72 25.57 200.48 25.57 201.45 24.6 202.43 25.57 202.43 25.57 205.18 25.57 207.13 23.62 207.13 20.87 209.88 20.87 211.83 18.92 211.83 18.92 211.83 16.17 210.86 15.2 211.83 14.22 211.83 11.47 210.86 10.49 211.83 9.52 211.83 6.77 210.86 5.79 211.83 4.82 211.83 4.82 211.83 2.06 209.88 0.12 207.13 0.12"/><polygon class="cls-1" points="235.09 0 233.15 1.95 233.15 4.7 234.12 5.67 233.15 6.65 233.15 9.4 234.12 10.38 233.15 11.35 233.15 14.1 233.55 14.51 232.18 14.51 232.18 13.13 230.23 11.19 230.23 11.19 230.23 11.19 228.86 11.19 228.86 9.81 226.91 7.86 226.91 7.86 225.53 7.86 225.53 6.49 223.58 4.54 222.21 4.54 222.21 3.16 221.23 2.19 221.23 2.18 221.23 2.18 219.28 0.24 219.28 0.23 216.53 0.23 216.53 0.24 214.58 2.18 214.58 2.18 214.58 2.18 214.58 4.94 214.58 4.94 215.56 5.91 214.58 6.88 214.58 6.88 214.58 6.88 214.58 9.64 214.58 9.64 215.56 10.61 214.58 11.59 214.58 14.34 215.56 15.31 214.58 16.29 214.58 19.04 215.56 20.01 214.58 20.99 214.58 20.99 214.58 20.99 214.58 23.74 214.58 23.74 216.53 25.69 219.28 25.69 221.23 23.74 221.23 23.74 221.23 20.99 221.23 20.99 220.26 20.01 221.23 19.04 221.23 16.29 220.26 15.31 221.23 14.34 221.23 11.59 220.83 11.19 222.21 11.19 222.21 12.56 222.21 12.56 224.15 14.51 224.16 14.51 225.53 14.51 225.53 15.89 225.53 15.89 227.48 17.83 227.48 17.83 228.86 17.83 228.86 19.21 228.86 19.21 230.8 21.16 232.18 21.16 232.18 22.54 233.15 23.5 233.15 23.5 235.09 25.45 237.85 25.45 239.79 23.5 239.79 20.75 239.79 20.75 239.79 20.75 238.83 19.79 238.83 19.78 238.82 19.77 239.79 18.8 239.79 16.05 238.82 15.08 239.79 14.1 239.79 11.35 238.82 10.38 239.79 9.4 239.79 6.65 239.79 6.65 238.82 5.67 239.79 4.7 239.79 1.95 237.85 0 235.09 0"/><path class="cls-1" d="M153.47,4.82h-2.76V2.06L148.77.12H146l-1,1-1-1h-2.76l-1,1-1-1h-2.76l-1,1-1-1h-2.75L130,2.06V4.82h0l1,1-1,1h0V9.52l1,1-1,1v2.75l1,1-1,1v2.75l1,1-1,1v2.75h0l1.95,1.95h2.75l2-1.95V20.87l-1-1,1-1V16.17h2.76l1-1,1,1h2.76l1-1,1,1h2.76v2.75l1,1-1,1h0v2.75h0l1.95,1.95h2.75l1.95-1.95h0V20.87h0l-1-1,1-1h0V16.17h0l-1.95-2h-2.76V11.47h2.76l1.95-2h0V6.77h0Zm-4.7,4.7H146l-1,1-1-1h-2.76l-1,1-1-1h-2.76V6.77h2.76l1-1,1,1h2.76l1-1,1,1h2.76Z"/><polygon class="cls-1" points="20.75 0.12 20.75 0.12 18.8 2.06 18.8 4.82 19.78 5.79 18.8 6.77 18.8 9.52 16.05 9.52 15.08 10.49 14.11 9.52 14.1 9.52 11.35 9.52 11.35 9.52 10.38 10.49 9.4 9.52 6.65 9.52 6.65 6.77 5.67 5.79 6.65 4.82 6.65 2.06 4.7 0.12 1.95 0.12 1.95 0.12 1.95 0.12 0 2.06 0 2.06 0 4.82 0 4.82 0.97 5.79 0 6.77 0 6.77 0 9.52 0 9.52 0.97 10.49 0 11.47 0 11.47 0 14.22 0 14.22 0.97 15.2 0 16.17 0 16.17 0 18.92 0 18.92 0.97 19.9 0 20.87 0 20.87 0 23.62 0 23.62 0 23.62 1.95 25.57 1.95 25.57 4.7 25.57 6.65 23.62 6.65 23.62 6.65 20.87 5.67 19.9 6.65 18.92 6.65 16.17 9.4 16.17 10.38 15.2 11.35 16.17 11.35 16.17 14.1 16.17 14.11 16.17 15.08 15.2 16.05 16.17 18.8 16.17 18.8 18.92 19.78 19.9 18.8 20.87 18.8 23.62 18.8 23.62 20.75 25.57 20.75 25.57 23.51 25.57 25.45 23.62 25.45 23.62 25.45 20.87 24.48 19.9 25.45 18.92 25.45 16.17 24.48 15.2 25.45 14.22 25.45 11.47 24.48 10.49 25.45 9.52 25.45 6.77 24.48 5.79 25.45 4.82 25.45 2.06 23.51 0.12 20.75 0.12"/><path class="cls-1" d="M58.36.12l-2,1.95V4.82H53.66L51.71,6.77V9.52H49l-1,1-1-1H44.26V6.77l-1-1,1-1V2.07L42.31.12H39.56l-2,1.95V4.82l1,1-1,1V9.52l1,1-1,1v2.75l1,1-1,1v2.75l1,1-1,1v2.75l2,1.95h2.75l1.95-1.95h0V20.87l-1-1,1-1V16.17H47l1-1,1,1h2.75v2.75l1.95,1.95h2.75v2.75h0l2,1.95h2.75l2-1.95h0V20.87l-2-1.95H58.36V16.17l-2-2H53.66V11.47h2.75l2-2h0V6.77h2.75l2-1.95V2.07l-2-1.95Zm-4.7,11.35Z"/><path class="cls-1" d="M89.32,11.47l2-2V6.77l-2-1.95H86.57V2.07L84.62.12H81.87l-1,1-1-1H77.17l-1,1-1-1H72.46l-1,1-1-1H67.76L65.82,2.07V4.82l1,1-1,1V9.52l1,1-1,1v2.75l1,1-1,1v2.75l1,1-1,1v2.75h0l1.94,1.95h2.76l1.94-1.95h0V20.87l-1-1,1-1V16.17h2.76l1-1,1,1h2.75l1-1,1,1h2.75v2.75l1,1-1,1v2.75h0l1.95,1.95h2.75l2-1.95h0V20.87l-1-1,1-1V16.17l-2-2H86.57V11.47Zm-4.7-2H81.87l-1,1-1-1H77.17l-1,1-1-1H72.46V6.77h2.76l1-1,1,1h2.75l1-1,1,1h2.75Z"/><polygon class="cls-1" points="32.91 0.12 30.16 0.12 28.21 2.06 28.21 4.82 29.18 5.79 28.21 6.77 28.21 9.52 29.18 10.49 28.21 11.47 28.21 14.22 29.18 15.2 28.21 16.17 28.21 18.92 29.18 19.9 28.21 20.87 28.21 23.62 28.21 23.62 30.16 25.57 32.91 25.57 34.86 23.62 34.86 20.87 33.88 19.9 34.86 18.92 34.86 16.17 33.88 15.2 34.86 14.22 34.86 11.47 33.88 10.49 34.86 9.52 34.86 6.77 33.88 5.79 34.86 4.82 34.86 2.06 32.91 0.12"/></g></g></svg>