<svg xmlns="http://www.w3.org/2000/svg" viewBox="0 0 166.1 15.92"><defs><style>.cls-1{fill:#773dbd;}</style></defs><g id="레이어_2" data-name="레이어 2"><g id="레이어_1-2" data-name="레이어 1"><polygon class="cls-1" points="77.63 0.07 77.63 0.07 75.93 0.07 75.93 0.07 75.32 0.68 74.72 0.07 73.01 0.07 72.41 0.68 71.81 0.07 70.1 0.07 69.5 0.68 68.89 0.07 67.19 0.07 65.98 1.28 65.98 1.28 65.98 2.99 64.27 2.99 64.27 2.99 63.07 4.19 63.06 4.19 63.06 5.9 63.07 5.9 63.07 5.9 63.67 6.5 63.07 7.11 63.06 7.11 63.06 8.81 63.07 8.81 63.67 9.42 63.07 10.02 63.06 10.02 63.06 11.73 63.07 11.73 64.27 12.93 65.98 12.93 65.98 14.64 67.19 15.85 68.89 15.85 69.5 15.24 70.1 15.85 71.81 15.85 72.41 15.24 73.01 15.85 74.72 15.85 75.93 14.64 75.93 14.64 75.93 12.93 77.63 12.93 78.84 11.73 78.84 10.02 78.24 9.42 78.84 8.81 78.84 7.11 77.63 5.9 75.93 5.9 75.93 5.9 75.32 6.5 74.72 5.9 73.01 5.9 71.81 7.11 71.81 8.81 73.01 10.02 74.72 10.02 74.72 11.73 73.01 11.73 72.41 12.33 71.81 11.73 70.1 11.73 70.1 11.73 69.5 12.33 68.89 11.73 67.19 11.73 67.19 11.73 67.19 10.02 66.58 9.42 67.19 8.81 67.19 7.11 66.58 6.5 67.19 5.9 67.19 5.9 67.19 4.19 67.19 4.19 68.89 4.19 69.5 3.59 70.1 4.19 71.81 4.19 72.41 3.59 73.01 4.19 74.72 4.19 75.32 3.59 75.93 4.19 77.63 4.19 78.84 2.99 78.84 2.99 78.84 1.28 78.84 1.28 77.63 0.07"/><path class="cls-1" d="M166.1,5.9V4.19L164.89,3h-1.71V1.28h0L162,.07h-1.71l-.6.61-.61-.61h-1.71l-.6.61-.6-.61h-1.71l-.6.61-.61-.61h-1.7l-1.21,1.21V3h0l.6.6-.6.6V5.9l.6.6-.6.61v1.7l.6.61-.6.6v1.71l.6.6-.6.6v1.71l1.21,1.21h1.7l.61-.61.6.61h1.71l.6-.61.6.61h1.71l.61-.61.6.61H162l1.2-1.21V12.93h1.71l1.21-1.2V10l-.61-.6.61-.61V7.11l-.61-.61ZM162,8.81l.6.61-.6.6v1.71h-1.71l-.6.6-.61-.6h-1.71l-.6.6-.6-.6h-1.71V10l-.6-.6.6-.61V7.11l-.6-.61.6-.6V4.19h1.71l.6-.6.6.6h1.71l.61-.6.6.6H162V5.9l.6.6-.6.61Z"/><path class="cls-1" d="M113.8,4.19,112.6,3h-1.71V1.28h0L109.68.07H108l-.61.61-.6-.61h-1.71l-.6.61-.6-.61h-1.71l-1.21,1.21V3H99.23L98,4.19h0V5.9l.6.6-.6.61v1.7l.6.61L98,10v1.71l1.2,1.2h1.71v1.71l1.21,1.21h1.71l.6-.61.6.61h1.71l.6-.61.61.61h1.7l1.21-1.21h0V12.93h1.71l1.2-1.2V10h0l-.6-.6.6-.61V7.11l-.6-.61.6-.6Zm-4.12,4.62.61.61-.61.6h0v1.71H108l-.61.6-.6-.6h-1.71l-.6.6-.6-.6h-1.71V10l-.6-.6.6-.61V7.11l-.6-.61.6-.6V4.19h1.71l.6-.6.6.6h1.71l.6-.6.61.6h1.7V5.9l.61.6-.61.61Z"/><polygon class="cls-1" points="128.37 0.07 127.16 1.28 127.16 2.99 127.16 2.99 127.77 3.59 127.16 4.19 127.16 4.19 127.16 5.9 127.77 6.5 127.16 7.11 127.16 8.81 127.16 8.81 127.77 9.42 127.16 10.02 127.16 11.73 125.46 11.73 124.85 12.33 124.25 11.73 122.54 11.73 121.94 12.33 121.34 11.73 119.63 11.73 119.63 10.02 119.03 9.42 119.63 8.81 119.63 7.11 119.03 6.5 119.63 5.9 119.63 5.9 119.63 4.19 119.03 3.59 119.63 2.99 119.63 2.99 119.63 1.28 119.63 1.28 118.42 0.07 116.72 0.07 116.72 0.07 115.51 1.28 115.51 1.28 115.51 2.99 115.51 2.99 116.11 3.59 115.51 4.19 115.51 5.9 115.51 5.9 116.11 6.5 115.51 7.11 115.51 8.81 116.11 9.42 115.51 10.02 115.51 11.73 116.72 12.93 116.72 12.93 118.42 12.93 118.42 14.64 119.63 15.85 121.34 15.85 121.94 15.24 122.54 15.85 124.25 15.85 124.85 15.24 125.46 15.85 125.46 15.85 127.16 15.85 127.16 15.85 128.37 14.64 128.37 12.93 130.08 12.93 131.28 11.73 131.28 11.73 131.28 10.02 130.68 9.42 131.28 8.81 131.28 7.11 130.68 6.5 131.28 5.9 131.28 4.19 130.68 3.59 131.28 2.99 131.28 1.28 130.08 0.07 128.37 0.07"/><polygon class="cls-1" points="145.7 0 144.49 1.21 144.49 2.91 145.1 3.52 144.49 4.12 144.49 5.83 145.1 6.43 144.49 7.03 144.49 8.74 144.75 8.99 143.9 8.99 143.9 8.14 142.69 6.93 142.69 6.93 142.69 6.93 141.84 6.93 141.84 6.08 140.63 4.87 139.78 4.87 139.78 4.02 138.57 2.81 137.72 2.81 137.72 1.96 137.11 1.35 137.11 1.35 137.11 1.35 135.9 0.15 134.2 0.15 132.99 1.35 132.99 1.35 132.99 3.06 132.99 3.06 133.59 3.66 132.99 4.27 132.99 5.97 132.99 5.97 133.59 6.58 132.99 7.18 132.99 8.89 133.59 9.49 132.99 10.09 132.99 11.8 133.59 12.4 132.99 13.01 132.99 14.71 134.2 15.92 135.9 15.92 137.11 14.71 137.11 13.01 136.51 12.4 137.11 11.8 137.11 10.09 136.51 9.49 137.11 8.89 137.11 7.18 136.86 6.93 137.72 6.93 137.72 7.79 138.92 8.99 139.78 8.99 139.78 9.85 139.78 9.85 140.98 11.05 140.98 11.05 141.84 11.05 141.84 11.91 141.84 11.91 143.04 13.11 143.9 13.11 143.9 13.97 144.49 14.56 144.49 14.57 145.7 15.77 147.41 15.77 148.62 14.57 148.62 12.86 148.62 12.86 148.61 12.86 148.02 12.26 148.02 12.26 148.01 12.26 148.62 11.65 148.62 9.95 148.01 9.34 148.62 8.74 148.62 7.03 148.01 6.43 148.62 5.83 148.62 4.12 148.61 4.12 148.01 3.52 148.62 2.91 148.62 1.21 147.41 0 145.7 0"/><path class="cls-1" d="M95.11,3h-1.7V1.28L92.2.07H90.49l-.6.61-.6-.61H87.58L87,.68,86.37.07h-1.7l-.61.61-.6-.61H81.75l-1.2,1.21V3h0l.6.6-.6.6V5.9l.6.6-.6.61v1.7l.6.61-.6.6v1.71l.6.6-.6.6v1.71l1.2,1.21h1.71l1.21-1.21V12.93l-.61-.6.61-.6V10h1.7l.61-.6.6.6h1.71l.6-.6.6.6H92.2v1.71l.6.6-.6.6h0v1.71l1.21,1.21h1.7l1.21-1.21h0V12.93h0l-.6-.6.6-.6h0V10h0L95.11,8.81h-1.7V7.11h1.7L96.32,5.9h0V4.19h0ZM92.2,5.9H90.49l-.6.6-.6-.6H87.58l-.6.6-.61-.6h-1.7V4.19h1.7l.61-.6.6.6h1.71l.6-.6.6.6H92.2Z"/><polygon class="cls-1" points="12.86 0.07 12.86 0.07 11.65 1.28 11.65 2.99 12.26 3.59 11.65 4.19 11.65 5.9 9.95 5.9 9.35 6.5 8.74 5.9 8.74 5.9 7.04 5.9 7.04 5.9 6.43 6.5 5.83 5.9 4.12 5.9 4.12 4.19 3.52 3.59 4.12 2.99 4.12 1.28 2.91 0.07 1.21 0.07 0 1.28 0 1.28 0 2.99 0 2.99 0.6 3.59 0 4.19 0 4.19 0 5.9 0 5.9 0.6 6.5 0 7.11 0 7.11 0 8.81 0 8.81 0.6 9.42 0 10.02 0 10.02 0 11.73 0 11.73 0.6 12.33 0 12.93 0 12.93 0 14.64 0 14.64 0 14.64 1.21 15.85 2.91 15.85 4.12 14.64 4.12 14.64 4.12 12.93 3.52 12.33 4.12 11.73 4.12 10.02 5.83 10.02 6.43 9.42 7.04 10.02 7.04 10.02 8.74 10.02 8.74 10.02 9.35 9.42 9.95 10.02 11.65 10.02 11.65 11.73 12.26 12.33 11.65 12.93 11.65 14.64 11.65 14.64 12.86 15.85 12.86 15.85 14.57 15.85 15.78 14.64 15.78 14.64 15.78 12.93 15.17 12.33 15.78 11.73 15.78 10.02 15.17 9.42 15.78 8.81 15.78 7.11 15.17 6.5 15.78 5.9 15.78 4.19 15.17 3.59 15.78 2.99 15.78 1.28 14.57 0.07 12.86 0.07"/><path class="cls-1" d="M36.17.07,35,1.28V3h-1.7l-1.21,1.2V5.9H30.34l-.6.6-.6-.6H27.43V4.19l-.6-.6.6-.6V1.28L26.22.07h-1.7L23.31,1.28V3l.6.6-.6.6V5.9l.6.6-.6.61v1.7l.6.61-.6.6v1.71l.6.6-.6.6v1.71l1.21,1.21h1.7l1.21-1.21h0V12.93l-.6-.6.6-.6V10h1.71l.6-.6.6.6h1.71v1.71l1.21,1.2H35v1.71h0l1.21,1.21h1.71l1.2-1.21h0V12.93l-1.2-1.2H36.17V10L35,8.81h-1.7V7.11H35L36.17,5.9V4.19h1.71L39.08,3V1.28L37.88.07Zm-2.91,7Z"/><path class="cls-1" d="M55.36,7.11l1.2-1.21V4.19L55.36,3H53.65V1.28L52.44.07h-1.7l-.61.61-.6-.61H47.82l-.6.61-.6-.61H44.91l-.6.61L43.7.07H42L40.79,1.28V3l.6.6-.6.6V5.9l.6.6-.6.61v1.7l.6.61-.6.6v1.71l.6.6-.6.6v1.71h0L42,15.85h1.7l1.21-1.21h0V12.93l-.6-.6.6-.6V10h1.71l.6-.6.6.6h1.71l.6-.6.61.6h1.7v1.71l.61.6-.61.6v1.71h0l1.21,1.21h1.71l1.2-1.21h0V12.93l-.6-.6.6-.6V10l-1.2-1.21H53.65V7.11ZM52.44,5.9h-1.7l-.61.6-.6-.6H47.82l-.6.6-.6-.6H44.91V4.19h1.71l.6-.6.6.6h1.71l.6-.6.61.6h1.7Z"/><polygon class="cls-1" points="20.4 0.07 18.69 0.07 17.48 1.28 17.48 2.99 18.09 3.59 17.48 4.19 17.48 5.9 18.09 6.5 17.48 7.11 17.48 8.81 18.09 9.42 17.48 10.02 17.48 11.73 18.09 12.33 17.48 12.93 17.48 14.64 17.48 14.64 18.69 15.85 20.4 15.85 21.6 14.64 21.6 12.93 21 12.33 21.6 11.73 21.6 10.02 21 9.42 21.6 8.81 21.6 7.11 21 6.5 21.6 5.9 21.6 4.19 21 3.59 21.6 2.99 21.6 1.28 20.4 0.07"/></g></g></svg>